<svg version="1.0" xmlns="http://www.w3.org/2000/svg" width="933.333" height="933.333" viewBox="0 0 700 700"><path d="M86.8 1.3C83 3 80.1 6 78 10c-1.6 3.3-1.7 10.3-1.6 115.5l.2 112 9.8 24c5.4 13.2 10.4 25.3 11.1 27 .7 1.6 4.9 12.1 9.4 23.2l8.1 20.2v177.2c0 174.8 0 177.3 2 181.3 1.1 2.3 3.6 5.2 5.7 6.6l3.7 2.5 221.5.3c153.6.2 222.7 0 225.1-.8 4.2-1.2 8.3-4.7 10.4-8.8 1.4-2.7 1.6-9.5 1.3-57.1l-.2-53.9-2.3-2.5c-1.3-1.4-3.5-2.8-4.8-3.1l-2.4-.6v-21.3l.1-21.2 3.8-1.8c2.7-1.2 4.3-2.8 5-4.9.8-2.1 1.1-32.3 1.1-97.5v-94.4l9.4-23.2c5.2-12.8 13.9-34.5 19.4-48.2l10-25-.1-33.8c0-30.9-.2-34-1.9-36.7-1.1-1.9-2.9-3.3-4.8-3.7-1.7-.3-3-1.1-3.1-1.7-.1-1.4-.1-40.9 0-41.8.1-.4 1.6-1.4 3.5-2.2 6.5-2.7 6.4-1.9 6.2-55.6l-.1-48.5-2.3-3.2c-1.2-1.8-3.7-4.3-5.5-5.5C612.5.5 612.4.5 570.5.2 526-.1 523.7.1 518.7 4.5c-4.8 4.3-5.7 8-5.7 23.9 0 10.6-.3 14.5-1.2 14.8-.7.2-24.9.4-53.8.3h-52.5l-.5-16c-.6-17.9-1.6-21-8.2-25-3.2-1.9-5.1-2-46.9-2h-43.5L302.8 3c-6.5 4.4-7.2 6.6-7.8 24.5l-.5 15.9-52.8.1c-29.1 0-53.3-.2-53.7-.5-.5-.3-1-7.5-1.2-16.1-.3-14.7-.4-15.8-2.8-19.2-1.3-2-4.1-4.5-6-5.6-3.5-1.9-5.4-2-46.1-2-30.6 0-43.1.4-45.1 1.2z"/></svg>