<svg xmlns="http://www.w3.org/2000/svg" height="512" width="512" viewBox="0 0 511.998 511.998"><path d="M415.37 504.49H96.628a5.007 5.007 0 01-5.007-5.007V241.411h328.755v258.072a5.007 5.007 0 01-5.006 5.007z" fill="#b7c1ca"/><path d="M420.374 241.409v258.078a5.007 5.007 0 01-5.007 5.007h-26.394V241.409h31.401z" fill="#a3aeb7"/><path fill="#b7c1ca" d="M256.005 171.074H63.264l28.365 70.337h328.739l28.365-70.337z"/><path fill="#a3aeb7" d="M448.73 171.077l-28.367 70.332h-31.39l28.356-70.332z"/><path d="M382.716 12.516v21.786a5.007 5.007 0 01-5.007 5.007h-83.934a5.007 5.007 0 01-5.007-5.007V12.516a5.007 5.007 0 00-5.007-5.007h-55.528a5.007 5.007 0 00-5.007 5.007v21.786a5.007 5.007 0 01-5.007 5.007h-83.934a5.007 5.007 0 01-5.007-5.007V12.516a5.007 5.007 0 00-5.007-5.007h-56a5.007 5.007 0 00-5.007 5.007v158.558h385.47V12.516a5.007 5.007 0 00-5.007-5.007h-56.004a5.008 5.008 0 00-5.007 5.007z" fill="#b7c1ca"/><path d="M448.73 12.52v158.558h-31.401V12.52a5.009 5.009 0 00-5.007-5.007h31.401a5.008 5.008 0 015.007 5.007z" fill="#a3aeb7"/><path d="M314.779 504.49h-117.56v-73.764c0-32.463 26.317-58.78 58.78-58.78s58.78 26.317 58.78 58.78v73.764z" fill="#ffdba9"/><path d="M314.776 430.724v73.767h-27.035v-73.767c0-16.231-6.579-30.931-17.213-41.564a58.69 58.69 0 00-28.047-15.651 58.986 58.986 0 0113.518-1.562c16.231 0 30.92 6.579 41.564 17.213 10.634 10.633 17.213 25.332 17.213 41.564z" fill="#ffc473"/><path d="M448.733 85.279a7.51 7.51 0 007.51-7.51V12.516C456.243 5.615 450.629 0 443.727 0h-56.004c-6.902 0-12.516 5.615-12.516 12.516v19.283h-78.928V12.516C296.279 5.615 290.664 0 283.763 0h-55.527c-6.902 0-12.516 5.615-12.516 12.516v19.283h-78.928V12.516C136.791 5.615 131.176 0 124.275 0H68.271c-6.902 0-12.517 5.615-12.517 12.516v158.558l.003.066c.001.082.009.164.012.245.008.206.022.411.047.613.011.089.026.177.04.265a7.505 7.505 0 00.41 1.521c.013.032.02.066.033.098l.035.086.017.042 27.761 68.839v256.633c0 6.902 5.615 12.516 12.516 12.516H415.37c6.902 0 12.516-5.615 12.516-12.516v-72.758c0-4.148-3.362-7.51-7.51-7.51s-7.51 3.362-7.51 7.51v70.255h-90.577v-66.254c0-36.553-29.737-66.29-66.29-66.29s-66.29 29.738-66.29 66.29v66.254H99.131V248.921h313.735v66.068h-23.584c-4.148 0-7.51 3.362-7.51 7.51s3.362 7.51 7.51 7.51h23.584v50.156c0 4.148 3.362 7.51 7.51 7.51s7.51-3.362 7.51-7.51V242.85l27.764-68.844.01-.025.039-.097c.015-.036.023-.074.037-.11a7.492 7.492 0 00.285-.91c.048-.196.087-.394.12-.595.015-.091.03-.182.042-.273.024-.197.037-.397.046-.599.004-.087.012-.173.013-.26l.003-.063V124.83c0-4.148-3.362-7.51-7.51-7.51s-7.51 3.362-7.51 7.51v38.735H70.774V96.802h54.053c4.148 0 7.51-3.362 7.51-7.51s-3.362-7.51-7.51-7.51H70.774V15.02h50.997v19.283c0 6.902 5.615 12.516 12.516 12.516h83.935c6.902 0 12.516-5.615 12.516-12.516V15.02h50.521v19.283c0 6.902 5.615 12.516 12.516 12.516h83.934c6.902 0 12.516-5.615 12.516-12.516V15.02h50.997v62.749a7.513 7.513 0 007.511 7.51zM204.728 430.727c0-28.271 23-51.271 51.271-51.271 28.27 0 51.27 23 51.27 51.271v66.254H204.728v-66.254zm232.88-252.143l-22.309 55.317H96.698L74.39 178.584h363.218z"/><path d="M146.254 121.71a7.51 7.51 0 00-7.51 7.51 7.51 7.51 0 007.51 7.51h30.781c4.148 0 7.51-3.362 7.51-7.51s-3.362-7.51-7.51-7.51h-30.781zm239.014 325.752h-30.781c-4.148 0-7.51 3.362-7.51 7.51s3.362 7.51 7.51 7.51h30.781c4.148 0 7.51-3.362 7.51-7.51s-3.361-7.51-7.51-7.51zM347.49 79.855c-4.148 0-7.51 3.362-7.51 7.51s3.362 7.51 7.51 7.51h30.781c4.148 0 7.51-3.362 7.51-7.51s-3.362-7.51-7.51-7.51H347.49zM254.521 315.5c-4.148 0-7.51 3.362-7.51 7.51s3.362 7.51 7.51 7.51h15.391c4.148 0 7.51-3.362 7.51-7.51s-3.362-7.51-7.51-7.51h-15.391zm131.445 59.393h-15.39c-4.148 0-7.51 3.362-7.51 7.51s3.362 7.51 7.51 7.51h15.39a7.51 7.51 0 000-15.02zm-261.139 59.288c-4.148 0-7.51 3.362-7.51 7.51s3.362 7.51 7.51 7.51h15.391c4.148 0 7.51-3.362 7.51-7.51s-3.362-7.51-7.51-7.51h-15.391zm210.768-158.357a7.51 7.51 0 00-7.51-7.51h-56.392c-4.148 0-7.51 3.362-7.51 7.51s3.362 7.51 7.51 7.51h56.392a7.51 7.51 0 007.51-7.51zM205.23 355.859c4.148 0 7.51-3.362 7.51-7.51s-3.362-7.51-7.51-7.51h-56.392a7.51 7.51 0 000 15.02h56.392z"/></svg>