<svg xmlns="http://www.w3.org/2000/svg" height="512" width="512" viewBox="0 0 512.001 512.001"><path d="M237.229 335.2l-48.824 39.221a5.047 5.047 0 00-1.887 3.936v121.078c0 4.122 4.673 6.506 8.011 4.088l42.7-30.939V335.2zm37.542 0l48.824 39.221a5.047 5.047 0 011.887 3.936v121.078c0 4.122-4.673 6.506-8.011 4.088l-42.7-30.938V335.2z" fill="#ff4f19"/><path d="M325.477 378.359v121.073c0 4.13-4.665 6.512-8.007 4.089l-12.884-9.339a5.273 5.273 0 001.242-3.443V361.77c0-.657-.121-1.302-.363-1.908l18.134 14.56a5.042 5.042 0 011.878 3.937zm-138.959 0v121.073c0 4.13 4.665 6.512 8.007 4.089l12.884-9.339a5.273 5.273 0 01-1.242-3.443V361.77c0-.657.121-1.302.363-1.908l-18.134 14.56a5.042 5.042 0 00-1.878 3.937z" fill="#e23d17"/><path d="M251.797 12.992L219.376 57.09c-2.43 3.305-.07 7.97 4.032 7.97h64.84c4.102 0 6.462-4.665 4.032-7.97l-32.42-44.098c-1.999-2.72-6.063-2.72-8.063 0z" fill="#b7c1ca"/><path d="M288.252 65.06h-14.957l-29.887-40.65 8.387-11.415c2-2.722 6.065-2.722 8.066-.001l32.423 44.097c2.431 3.305.071 7.969-4.032 7.969z" fill="#a3aeb7"/><path fill="#ffdba9" d="M237.234 65.06h37.542v406.641h-37.542z"/><path fill="#ffc473" d="M256.003 65.06h18.772v406.641h-18.772z"/><path d="M328.297 368.568L282.278 331.6V175.671c0-4.146-3.36-7.507-7.507-7.507s-7.507 3.361-7.507 7.507v288.517h-22.527V72.568h22.527v56.808c0 4.146 3.36 7.507 7.507 7.507s7.507-3.361 7.507-7.507V72.568h16.63c.75 0 1.498-.155 2.17-.488 4.853-2.407 5.755-7.869 3.11-11.465L261.877 3.061a7.502 7.502 0 00-12.096 0L207.47 60.614c-2.645 3.598-1.743 9.058 3.112 11.466.672.333 1.42.488 2.17.488h16.971v259.034l-46.018 36.966a12.5 12.5 0 00-4.693 9.789v41.49a7.507 7.507 0 0015.014 0v-40.313l35.696-28.674v117.893l-35.696 25.864v-29.076a7.507 7.507 0 00-15.014 0v33.894c0 4.743 2.625 9.028 6.848 11.183a12.562 12.562 0 005.716 1.381c2.592 0 5.166-.809 7.358-2.397l41.956-30.399h30.221l41.955 30.4a12.524 12.524 0 007.359 2.397c1.947 0 3.904-.456 5.717-1.381a12.502 12.502 0 006.848-11.183v-121.08a12.507 12.507 0 00-4.693-9.788zM255.829 20.182l27.475 37.371h-54.949l27.474-37.371zm62.145 474.435l-35.695-25.864V350.86l35.695 28.674v115.083z"/></svg>