<svg xmlns="http://www.w3.org/2000/svg" viewBox="0 0 512.002 512.002"><path d="M303.544 146.743h-95.383V92.624a5.005 5.005 0 015.005-5.005h85.373a5.005 5.005 0 015.005 5.005v54.119z" fill="#ffdba9"/><path d="M303.54 92.621v54.123h-16.877V92.621a5.007 5.007 0 00-5.005-5.005h16.877a5 5 0 015.005 5.005z" fill="#ffc473"/><path d="M173.575 408.076v18.744h-43.71a5.005 5.005 0 01-5.005-5.005v-8.735a5.005 5.005 0 00-5.005-5.005H95.88a5.005 5.005 0 00-5.005 5.005v8.735a5.005 5.005 0 01-5.005 5.005H47.165a5.005 5.005 0 01-5.005-5.005v-8.735a5.005 5.005 0 00-5.005-5.005H12.934a5.005 5.005 0 00-5.005 5.005v91.412h199.878v-96.417h-34.232zm164.852 0v18.744h43.71a5.005 5.005 0 005.005-5.005v-8.735a5.005 5.005 0 015.005-5.005h23.976a5.005 5.005 0 015.005 5.005v8.735a5.005 5.005 0 005.005 5.005h38.705a5.005 5.005 0 005.005-5.005v-8.735a5.005 5.005 0 015.005-5.005h24.222a5.005 5.005 0 015.005 5.005v91.412H304.196v-96.417h34.231z" fill="#ffdba9"/><path d="M504.077 413.076v91.42h-18.688v-91.42a5.007 5.007 0 00-5.005-5.005h18.688a5.007 5.007 0 015.005 5.005z" fill="#ffc473"/><path fill="#ff4f19" d="M157.416 265.301h196.873v239.195H157.416z"/><path fill="#e23d17" d="M331.527 265.301h22.759v239.195h-22.759z"/><path fill="#ff4f19" d="M255.857 223.146H139.726l17.09 42.38H354.89l17.09-42.38z"/><path fill="#e23d17" d="M371.977 223.149l-17.086 42.372h-23.353l17.086-42.372z"/><path d="M332.203 129.599v9.15a5.005 5.005 0 01-5.005 5.005h-46.596a5.005 5.005 0 01-5.005-5.005v-9.15a5.005 5.005 0 00-5.005-5.005h-29.479a5.005 5.005 0 00-5.005 5.005v9.15a5.005 5.005 0 01-5.005 5.005h-46.596a5.005 5.005 0 01-5.005-5.005v-9.15a5.005 5.005 0 00-5.005-5.005H144.73a5.005 5.005 0 00-5.005 5.005v93.547h232.254v-93.547a5.005 5.005 0 00-5.005-5.005h-29.767a5.006 5.006 0 00-5.004 5.005z" fill="#ff4f19"/><path d="M250.321 203.973h-21.567a7.507 7.507 0 010-15.014h21.567a7.507 7.507 0 010 15.014zm84.82-16.096h-14.368a7.507 7.507 0 010-15.014h14.368a7.507 7.507 0 010 15.014zm-147.004-11.203h-14.368a7.507 7.507 0 010-15.014h14.368a7.507 7.507 0 010 15.014z"/><path d="M371.977 129.597v93.552h-23.683v-93.552a5.007 5.007 0 00-5.005-5.005h23.683a5.007 5.007 0 015.005 5.005z" fill="#e23d17"/><path d="M308.837 504.492H202.868V437.88c0-29.263 23.722-52.985 52.985-52.985 29.263 0 52.985 23.722 52.985 52.985v66.611h-.001z" fill="#00ad95"/><path d="M308.835 437.88v66.615h-32.622V437.88c0-14.624-5.926-27.877-15.515-37.467a52.887 52.887 0 00-21.161-12.953 52.906 52.906 0 0116.316-2.563c14.634 0 27.877 5.926 37.467 15.515 9.58 9.591 15.515 22.844 15.515 37.468z" fill="#039377"/><path d="M271.209 347.341h-30.712a5.005 5.005 0 01-5.005-5.005v-21.68c0-11.245 9.116-20.361 20.361-20.361 11.245 0 20.361 9.116 20.361 20.361v21.68a5.005 5.005 0 01-5.005 5.005z" fill="#d5f0f7"/><path d="M276.213 320.655v21.681a5.007 5.007 0 01-5.005 5.005h-20.36a5.007 5.007 0 005.005-5.005v-21.681a20.285 20.285 0 00-5.966-14.394 20.434 20.434 0 00-4.214-3.233 20.156 20.156 0 0110.18-2.733 20.285 20.285 0 0114.394 5.966 20.285 20.285 0 015.966 14.394z" fill="#a6dfe8"/><path d="M290.055 25.99l13.851-15.129c1.175-1.284.264-3.353-1.477-3.353h-46.576v39.668h46.576c1.742 0 2.653-2.069 1.476-3.354l-13.851-15.129c-.7-.765-.7-1.938.001-2.703z" fill="#00ad95"/><path d="M311.076 315.81a7.507 7.507 0 000-15.014h-7.694a7.507 7.507 0 000 15.014h7.694zm-3.205 60.735h20.086a7.507 7.507 0 000-15.014h-20.086a7.507 7.507 0 000 15.014zM185.84 296.22a7.507 7.507 0 000 15.014h7.693a7.507 7.507 0 000-15.014h-7.693zm42.145 24.436v21.68c0 6.9 5.613 12.512 12.512 12.512h30.712c6.9 0 12.512-5.613 12.512-12.512v-21.68c0-15.367-12.501-27.868-27.868-27.868s-27.868 12.501-27.868 27.868zm40.722 0v19.178H243v-19.178c0-7.088 5.766-12.854 12.854-12.854s12.853 5.766 12.853 12.854z"/><path d="M499.068 400.569h-24.222c-6.9 0-12.512 5.612-12.512 12.512v6.232h-33.7v-6.232c0-6.9-5.612-12.512-12.512-12.512h-23.976c-6.9 0-12.512 5.612-12.512 12.512v6.232h-17.838v-54.287a7.507 7.507 0 00-15.014 0v131.96h-30.437v-59.104c0-33.356-27.137-60.492-60.492-60.492-15.87 0-30.866 6.1-42.226 17.177-11.339 11.056-17.818 25.851-18.243 41.662a7.508 7.508 0 007.302 7.707c4.138.107 7.594-3.158 7.707-7.302.319-11.882 5.191-23.003 13.715-31.315 8.54-8.327 19.814-12.913 31.745-12.913 25.077 0 45.478 20.401 45.478 45.478v59.104h-90.954v-14.512a7.507 7.507 0 00-15.014 0v14.511h-30.437V356.872h8.845a7.507 7.507 0 000-15.014h-8.845v-68.824h181.859v45.78a7.507 7.507 0 0015.014 0v-50.367c.016-.039.039-.073.055-.112 1.677-4.151 3.348-8.303 5.023-12.455l7.973-19.77 2.946-7.305c.275-.683.51-1.404.833-2.066 1.079-2.215.862-3.25.861-5.724v-91.414c0-6.9-5.612-12.512-12.512-12.512h-29.767c-6.9 0-12.512 5.613-12.512 12.512v6.648h-13.644V92.623c0-6.9-5.612-12.512-12.512-12.512h-35.176V54.684h39.064a9.511 9.511 0 007.013-15.931l-10.447-11.411 10.447-11.411a9.515 9.515 0 001.69-10.253A9.519 9.519 0 00302.429 0h-46.576a7.507 7.507 0 00-7.507 7.507v39.669c0 .023.003.045.003.068v32.868h-35.183c-6.9 0-12.512 5.613-12.512 12.512v43.623H187.01V129.6c0-6.9-5.613-12.512-12.512-12.512H144.73c-6.9 0-12.512 5.613-12.512 12.512v90.485c0 1.839-.161 4.033.512 5.773.012.032.02.065.032.098l.035.086.017.041 17.039 42.253c.016.039.039.073.055.112v150.867h-17.542v-6.232c0-6.9-5.613-12.512-12.512-12.512H95.879c-6.9 0-12.512 5.612-12.512 12.512v6.232H49.668v-6.232c0-6.9-5.613-12.512-12.512-12.512H12.934c-6.9 0-12.512 5.612-12.512 12.512v91.412a7.507 7.507 0 007.507 7.507h496.145a7.507 7.507 0 007.507-7.507v-91.412c0-6.902-5.614-12.514-12.513-12.514zM263.364 15.015h26.56l-5.406 5.906a9.461 9.461 0 000 12.843l5.406 5.906h-26.56V15.015zm-113.455 481.97H15.436v-31.137h14.06a7.507 7.507 0 000-15.014h-14.06v-35.251h19.217v6.232c0 6.9 5.613 12.512 12.512 12.512H85.87c6.9 0 12.512-5.612 12.512-12.512v-6.232h18.97v6.232c0 6.9 5.613 12.512 12.512 12.512h20.045v62.658zm65.76-401.859h80.368v41.12h-12.932v-6.648c0-6.9-5.613-12.512-12.512-12.512h-29.48c-6.9 0-12.512 5.613-12.512 12.512v6.648h-12.932v-41.12zm-68.435 120.513v-83.537h24.762v6.648c0 6.9 5.613 12.512 12.512 12.512h46.596c6.9 0 12.512-5.613 12.512-12.512v-6.648h24.475v6.648c0 6.9 5.613 12.512 12.512 12.512h46.596c6.9 0 12.512-5.613 12.512-12.512v-6.648h24.762v83.537H147.234zm3.614 15.015h210.01l-10.945 27.14h-188.12l-10.945-27.14zm345.718 266.331H361.797v-62.658h20.34c6.9 0 12.512-5.612 12.512-12.512v-6.232h18.97v6.232c0 6.9 5.613 12.512 12.512 12.512h38.705c6.9 0 12.512-5.612 12.512-12.512v-6.232h19.217v81.402z"/><path d="M458.508 478.47a7.507 7.507 0 007.507 7.507h14.368a7.507 7.507 0 000-15.014h-14.368a7.508 7.508 0 00-7.507 7.507zM137.77 443.936h-20.086a7.507 7.507 0 000 15.014h20.086a7.507 7.507 0 000-15.014zm286.45 4.84h-20.086a7.507 7.507 0 000 15.014h20.086a7.507 7.507 0 000-15.014zM86.057 465.958h-7.694a7.507 7.507 0 000 15.014h7.694a7.507 7.507 0 000-15.014z"/></svg>