<svg xmlns="http://www.w3.org/2000/svg" height="512" width="512"><path d="M72.324 130.661c-9.352-1.286-18.346 5.276-19.457 14.65-1.077 9.091 5.324 17.407 14.432 18.659l321.695 44.225c5.827 22.187 24.484 39.797 48.626 43.116 32.008 4.4 61.522-17.98 65.922-49.987l.913-6.641a4.996 4.996 0 00-4.269-5.63L72.324 130.661z" fill="#b76035"/><path d="M494.584 225.341c-10.585 16.188-28.847 26.519-48.919 26.519-2.654 0-5.338-.173-8.043-.549-24.139-3.315-42.798-20.926-48.624-43.113l-321.7-44.231c-9.212-1.261-15.659-9.762-14.388-18.974a16.91 16.91 0 011.607-5.226c2.4 4.81 7.057 8.389 12.781 9.172l332.608 43.8a5.098 5.098 0 014.177 3.51c6.69 20.722 24.712 36.865 47.733 40.034 2.705.376 5.389.549 8.043.549 12.822-.001 24.912-4.22 34.725-11.491z" fill="#a04c27"/><path d="M455.153 127.453c-25.086-3.449-48.219 14.092-51.667 39.178l-1.249 9.085 90.845 12.489 1.249-9.085c3.449-25.086-14.092-48.218-39.178-51.667z" fill="#b7c1ca"/><path d="M494.329 179.117l-1.251 9.09-14.744-2.023.844-6.131c3.447-25.085-14.093-48.217-39.178-51.664a38.094 38.094 0 00-1.495-.183 45.941 45.941 0 0116.645-.753c25.086 3.447 42.626 26.579 39.179 51.664z" fill="#a3aeb7"/><path d="M469.523 440.752H12.578a5.084 5.084 0 01-5.084-5.084v-50.716a5.084 5.084 0 015.084-5.084h456.944a5.084 5.084 0 015.084 5.084v50.716a5.082 5.082 0 01-5.083 5.084z" fill="#b76035"/><path d="M469.523 440.752H445.9v-60.885h23.622a5.084 5.084 0 015.084 5.084v50.716a5.082 5.082 0 01-5.083 5.085z" fill="#a04c27"/><path d="M145.759 411.59l-32.48-15.361L276.526 51.046c4.242-8.969 14.951-12.801 23.92-8.56 8.969 4.242 12.801 14.951 8.56 23.92L145.759 411.59z" fill="#b76035"/><path d="M310.738 58.736a17.94 17.94 0 01-1.729 7.667L145.76 411.591l-16.645-7.88L294.367 54.293a18.473 18.473 0 001.779-7.911c0-1.85-.275-3.691-.823-5.44 1.739.254 3.457.763 5.125 1.545 6.487 3.071 10.29 9.518 10.29 16.249z" fill="#a04c27"/><path d="M336.342 411.59l32.48-15.361L205.575 51.046c-4.242-8.969-14.951-12.801-23.92-8.56-8.969 4.242-12.801 14.951-8.56 23.92L336.342 411.59z" fill="#b76035"/><path d="M368.818 396.227l-16.615 7.86L185.446 51.486a18.737 18.737 0 00-6.386-7.494 17.616 17.616 0 012.593-1.505c8.968-4.24 19.675-.407 23.926 8.562l163.239 345.178z" fill="#a04c27"/><circle cx="241.05" cy="168.07" r="43.558" fill="#ff961d"/><path d="M284.606 168.075c0 24.048-19.503 43.55-43.56 43.55-13.961 0-26.396-6.569-34.358-16.788a43.366 43.366 0 0016.95 3.427c24.058 0 43.56-19.503 43.56-43.56a43.302 43.302 0 00-9.192-26.752c15.628 6.598 26.6 22.084 26.6 40.123z" fill="#ef8318"/><g fill="#6b6c8a"><circle cx="126.49" cy="410.31" r="60.943"/><circle cx="355.19" cy="410.31" r="60.943"/></g><path d="M416.131 410.31c0 33.656-27.291 60.938-60.948 60.938-24.19 0-45.086-14.093-54.928-34.521 10.046 7.301 22.4 11.602 35.762 11.602 33.656 0 60.938-27.291 60.938-60.948 0-9.467-2.156-18.425-6.01-26.417 15.262 11.073 25.186 29.051 25.186 49.346zm-228.695 0c0 33.656-27.291 60.938-60.948 60.938-24.19 0-45.086-14.093-54.928-34.521 10.046 7.301 22.4 11.602 35.762 11.602 33.656 0 60.938-27.291 60.938-60.948 0-9.467-2.156-18.425-6.01-26.417 15.262 11.073 25.186 29.051 25.186 49.346z" fill="#5d5f7a"/><path d="M509.46 186.456a12.4 12.4 0 00-7.917-4.764l.213-1.551c1.941-14.116-1.732-28.143-10.341-39.497-8.609-11.353-21.125-18.675-35.241-20.615v-.001c-14.119-1.945-28.143 1.731-39.497 10.341s-18.675 21.125-20.616 35.241l-.211 1.534-5.612-.771-20.408-2.778a7.495 7.495 0 00-2.022 14.853l20.398 2.776 11.693 1.608c.426.14.865.247 1.316.309l90.846 12.49c.34.047.681.07 1.021.07.089 0 .177-.018.266-.021l3.344.46-.573 4.166c-3.831 27.862-29.622 47.408-57.477 43.583-20.498-2.818-37.14-17.575-42.398-37.595a7.493 7.493 0 00-6.228-5.521L288.523 186.82a50.716 50.716 0 003.575-18.678l31.144 4.24c4.104.57 7.879-2.315 8.437-6.415a7.496 7.496 0 00-6.415-8.438l-35.54-4.838a50.992 50.992 0 00-6.754-13.703l32.81-69.376c2.908-6.148 3.247-13.06.956-19.463-2.291-6.403-6.939-11.53-13.086-14.438-6.148-2.907-13.059-3.247-19.462-.955-6.403 2.291-11.53 6.939-14.437 13.087L241.05 108.53l-28.7-60.689c-6.002-12.691-21.209-18.13-33.9-12.131-12.69 6.002-18.132 21.209-12.13 33.899l32.808 69.371c-.289.415-.568.838-.845 1.262L73.344 123.236c-6.576-.902-13.382.922-18.669 5.01-5.206 4.025-8.492 9.773-9.251 16.184-1.549 13.075 7.806 25.172 20.854 26.965l128.227 17.629a51.156 51.156 0 004.626 8.142l-68.5 144.842a69.21 69.21 0 00-4.139-.137c-23.713 0-44.642 12.128-56.927 30.501H12.578C5.642 372.373 0 378.015 0 384.951v50.716c0 6.936 5.642 12.579 12.578 12.579h56.988c12.285 18.373 33.213 30.5 56.926 30.5s44.641-12.127 56.926-30.5H298.26c12.285 18.373 33.214 30.5 56.927 30.5s44.641-12.127 56.926-30.5h57.41c6.936 0 12.579-5.643 12.579-12.579v-50.716c0-6.936-5.643-12.579-12.579-12.579h-57.409c-12.285-18.374-33.214-30.501-56.927-30.501-1.253 0-2.496.039-3.732.106l-66.452-140.512 98.221 13.503c8.089 23.404 28.546 40.354 53.377 43.768a66.18 66.18 0 009.033.621c32.432-.002 60.796-23.998 65.335-57.011l.913-6.642a12.414 12.414 0 00-2.422-9.248zm-22.554-8.356l-.211 1.534-75.996-10.448.211-1.534c1.396-10.15 6.66-19.148 14.823-25.339 8.164-6.191 18.249-8.823 28.399-7.435 10.149 1.396 19.148 6.66 25.339 14.823 6.19 8.163 8.83 18.249 7.435 28.399zm-296.635-4.788L68.32 156.547c-5.012-.689-8.605-5.334-8.01-10.354.282-2.382 1.537-4.544 3.535-6.089 2.124-1.641 4.842-2.38 7.469-2.016l120.52 16.406a50.826 50.826 0 00-1.839 13.578 50.987 50.987 0 00.276 5.24zm229.383 214.05h47.458v45.896h-47.458a68.11 68.11 0 003.97-22.948c0-8.048-1.407-15.77-3.97-22.948zM283.302 54.25a10.403 10.403 0 015.937-5.382 10.404 10.404 0 018.003.393c5.219 2.468 7.457 8.722 4.989 13.941l-30.363 64.203a50.86 50.86 0 00-18.92-8.972l30.354-64.183zm-6.191 113.821c0 19.886-16.178 36.064-36.064 36.064-19.885 0-36.064-16.178-36.064-36.064s16.178-36.064 36.064-36.064c19.885 0 36.064 16.178 36.064 36.064zM179.87 63.202c-2.468-5.219-.23-11.473 4.989-13.941a10.406 10.406 0 014.46-1.005c3.925 0 7.695 2.216 9.482 5.994l30.353 64.181a50.874 50.874 0 00-18.922 8.97L179.87 63.202zM14.989 433.257v-45.896h47.036a68.103 68.103 0 00-3.97 22.947c0 8.048 1.407 15.77 3.97 22.948H14.989v.001zm111.504 30.501c-29.472 0-53.449-23.977-53.449-53.448s23.977-53.448 53.449-53.448 53.449 23.977 53.449 53.448-23.977 53.448-53.449 53.448zm164.225-30.501H190.96a68.11 68.11 0 003.97-22.948 68.019 68.019 0 00-3.974-22.947h99.764a68.018 68.018 0 00-3.973 22.947 68.13 68.13 0 003.971 22.948zm-107.324-60.884a69.067 69.067 0 00-6.747-8.563l28.867-61.039a7.495 7.495 0 00-13.55-6.407l-27.102 57.306a68.176 68.176 0 00-18.924-8.967l64.298-135.958a50.873 50.873 0 0018.923 8.967l-17.176 36.317a7.495 7.495 0 0013.55 6.407l15.517-32.809 64.264 135.887a69.098 69.098 0 00-7.026 8.859H183.394zm171.792-15.512c29.472 0 53.449 23.977 53.449 53.448s-23.977 53.448-53.449 53.448-53.449-23.977-53.449-53.448 23.978-53.448 53.449-53.448zm-19.074-12.265a68.18 68.18 0 00-18.975 8.858l-64.202-135.755a50.878 50.878 0 0018.922-8.968l64.255 135.865z"/></svg>