<svg xmlns="http://www.w3.org/2000/svg" height="512" width="512"><path d="M504.266 272.818H7.508v-89.769c0-43.316 35.115-78.432 78.432-78.432h339.895c43.316 0 78.432 35.115 78.432 78.432v89.769h-.001z" fill="#b76035"/><path d="M504.263 183.053v89.766h-20.632v-89.766c0-43.316-35.118-78.434-78.434-78.434h20.642c43.316 0 78.424 35.117 78.424 78.434z" fill="#a04c27"/><path d="M499.26 457.717H12.513a5.005 5.005 0 01-5.005-5.005V272.818h496.758v179.894a5.005 5.005 0 01-5.006 5.005z" fill="#b76035"/><path d="M7.508 452.712V272.818h41.726v184.9h-36.72a5.007 5.007 0 01-5.006-5.006z" fill="#ffdba9"/><path fill="#ffc473" d="M28.374 272.822h20.862V457.72H28.374z"/><path d="M462.766 457.717v-184.9h41.726v179.894a5.005 5.005 0 01-5.005 5.005h-36.721z" fill="#ffdba9"/><path d="M504.493 273.019v179.692a5.007 5.007 0 01-5.005 5.005h-15.857V273.019h20.862z" fill="#ffc473"/><path fill="#ffdba9" d="M49.233 272.822h155.486v41.726H49.233z"/><path fill="#ffc473" d="M180.102 272.822h24.613v41.726h-24.613z"/><path d="M273.668 356.269h-35.563c-18.439 0-33.387-14.948-33.387-33.387v-50.064h102.337v50.064c.001 18.439-14.947 33.387-33.387 33.387z" fill="#ffdba9"/><path d="M307.052 272.819v50.063c0 18.44-14.946 33.386-33.386 33.386h-19.601c18.44 0 33.386-14.946 33.386-33.386v-50.063h19.601z" fill="#ffc473"/><path fill="#ffdba9" d="M307.058 272.822h155.706v41.726H307.058z"/><path fill="#ffc473" d="M438.158 272.822h24.613v41.726h-24.613z"/><path d="M7.508 384.621s69.855 7.082 75.194 73.096H12.513a5.005 5.005 0 01-5.005-5.005v-68.091z" fill="#ff961d"/><path d="M82.702 457.716H60.097C49.205 422.288 24.85 409.324 7.512 404.84v-20.222s69.855 7.088 75.19 73.098z" fill="#ef8318"/><path d="M504.492 384.621s-69.855 7.082-75.194 73.096h70.189a5.005 5.005 0 005.005-5.005v-68.091z" fill="#ff961d"/><path d="M429.298 457.716h21.162c10.892-35.428 36.69-48.392 54.029-52.876v-20.222c-.001 0-69.856 7.088-75.191 73.098z" fill="#ef8318"/><path d="M451.678 273.014c-7.187-17.32 6.103-42.969-7.305-57.386-13.541-14.562-48.91-12.545-67.517-23.142-18.423-10.492-26.828-37.496-48.96-43.12-21.355-5.426-48.341 12.377-72.007 12.377-23.667 0-50.653-17.804-72.008-12.377-22.133 5.624-30.537 32.628-48.959 43.12-18.607 10.597-53.976 8.581-67.517 23.142-13.407 14.417-.119 40.066-7.306 57.386h391.579z" fill="#ff961d"/><path d="M451.677 273.009h-30.402c-1.712-16.968 7.989-26.963-3.714-39.536-13.995-15.056-50.834-18.576-70.075-29.528-19.04-10.842-29.171-44.037-52.046-49.853a31.44 31.44 0 00-2.713-.561c12.383-3.774 24.486-6.877 35.168-4.164 22.134 5.626 30.543 32.625 48.962 43.116 18.61 10.601 53.978 8.579 67.512 23.145 13.414 14.415.12 40.062 7.308 57.381z" fill="#ef8318"/><path d="M74.385 127.669a7.508 7.508 0 00-1.957 10.436l19.52 28.529a7.5 7.5 0 006.204 3.268 7.509 7.509 0 006.191-11.748l-19.52-28.529a7.511 7.511 0 00-10.438-1.956zm352.568 1.958l-19.52 28.529a7.507 7.507 0 006.191 11.748 7.502 7.502 0 006.204-3.268l19.52-28.529a7.507 7.507 0 00-1.957-10.436 7.51 7.51 0 00-10.438 1.956z"/><path d="M269.836 308.975c0-7.704-6.246-13.95-13.95-13.95-7.704 0-13.95 6.246-13.95 13.95 0 4.086 1.768 7.75 4.568 10.302v5.401c0 5.16 4.222 9.382 9.382 9.382 5.16 0 9.382-4.222 9.382-9.382v-5.401c2.8-2.551 4.568-6.215 4.568-10.302z" fill="#d5f0f7"/><path d="M238.997 324.678c0 9.313 7.576 16.89 16.89 16.89s16.89-7.576 16.89-16.89v-2.495a21.482 21.482 0 004.568-13.208c0-11.832-9.626-21.458-21.458-21.458-11.832 0-21.458 9.626-21.458 21.458a21.48 21.48 0 004.568 13.208v2.495zm16.89-22.144a6.45 6.45 0 016.442 6.442c0 1.821-.752 3.509-2.117 4.753a7.507 7.507 0 00-2.451 5.549v5.401c0 1.016-.858 1.874-1.874 1.874s-1.874-.858-1.874-1.874v-5.401c0-2.112-.89-4.126-2.451-5.549-1.365-1.244-2.117-2.932-2.117-4.753a6.45 6.45 0 016.442-6.442z"/><path d="M511.775 271.021v-42.717a7.509 7.509 0 00-15.016 0v37.005h-39.447c-.793-5.077-.303-11.092.208-17.366 1.026-12.585 2.189-26.851-7.649-37.429-9.337-10.04-25.494-13.252-41.119-16.358-10.417-2.071-21.19-4.213-28.18-8.195-6.672-3.8-12.147-10.62-17.943-17.84-8.356-10.409-17.827-22.207-32.883-26.033-14.044-3.571-29.169 1.13-43.794 5.675-10.239 3.181-20.825 6.471-30.063 6.471s-19.824-3.29-30.063-6.471c-14.627-4.545-29.751-9.245-43.795-5.675-15.057 3.826-24.527 15.624-32.883 26.033-5.796 7.22-11.271 14.04-17.943 17.84-6.991 3.981-17.763 6.124-28.18 8.195-15.625 3.106-31.782 6.319-41.119 16.358-9.839 10.579-8.675 24.844-7.649 37.43.512 6.274 1 12.287.208 17.366H15.016v-82.261c0-39.107 31.816-70.924 70.924-70.924h69.798l4.529 11.07a7.51 7.51 0 006.951 4.667c.946 0 1.909-.18 2.84-.562a7.508 7.508 0 004.106-9.791l-2.202-5.384h76.576a7.51 7.51 0 0014.702 0h76.576l-2.202 5.384a7.506 7.506 0 004.106 9.791c.931.38 1.893.562 2.84.562a7.51 7.51 0 006.951-4.667l4.529-11.07h69.798c39.108 0 70.924 31.816 70.924 70.924a7.509 7.509 0 0015.016 0c0-47.387-38.552-85.94-85.94-85.94h-63.655l16.356-39.981a7.507 7.507 0 10-13.897-5.685L345.959 97.11h-82.56V64.044a7.509 7.509 0 00-15.016 0v33.064h-82.56L147.14 51.442a7.508 7.508 0 00-13.897 5.685l16.356 39.981H85.94C38.552 97.109 0 135.661 0 183.049v269.663c0 6.9 5.613 12.513 12.513 12.513h486.973c6.9 0 12.513-5.613 12.513-12.513V272.818a7.49 7.49 0 00-.224-1.797zm-56.518 9.305v26.71H314.564v-26.513l140.693-.197zM72.901 220.74c6.03-6.485 19.767-9.216 33.051-11.857 11.591-2.304 23.577-4.688 32.684-9.874 9.159-5.217 15.8-13.488 22.222-21.488 7.55-9.406 14.683-18.291 24.872-20.879 2.192-.558 4.508-.803 6.929-.803 8.552 0 18.41 3.063 28.711 6.264 11.308 3.514 23.003 7.148 34.519 7.148 11.516 0 23.211-3.634 34.519-7.148 13.217-4.107 25.701-7.988 35.64-5.461 10.189 2.589 17.322 11.473 24.873 20.879 6.422 8 13.062 16.271 22.222 21.488 9.107 5.187 21.092 7.569 32.683 9.874 13.284 2.641 27.02 5.373 33.051 11.857 5.33 5.731 4.565 15.116 3.679 25.983-.503 6.17-1.013 12.471-.377 18.586H69.598c.636-6.116.126-12.415-.377-18.586-.885-10.867-1.65-20.252 3.68-25.983zm226.647 59.782v42.36c0 14.269-11.609 25.879-25.879 25.879h-35.563c-14.269 0-25.879-11.609-25.879-25.879v-42.36h87.321zm-284.532-.196h26.71v106.93c-10.592-5.122-20.467-7.73-26.71-9v-97.93zm0 169.883v-56.583c6.229 1.479 15.245 4.27 24.455 9.36 19.277 10.655 30.919 26.516 34.692 47.224H15.016v-.001zm407.613 0H89.372c-3.44-22.443-14.578-40.847-32.63-53.998v-74.16h51.351a7.509 7.509 0 000-15.016H56.742v-26.71l140.469.196v26.513h-42.568a7.509 7.509 0 000 15.016h42.568v.831c0 22.549 18.346 40.895 40.895 40.895h35.563c22.549 0 40.895-18.346 40.895-40.895v-.831h140.694v74.16c-18.053 13.152-29.191 31.556-32.629 53.999zm74.13 0h-58.921c3.746-20.55 15.245-36.333 34.269-46.988 9.188-5.146 18.308-7.999 24.652-9.524v56.512zm0-71.908c-6.254 1.285-16.018 3.891-26.484 8.954v-106.93h26.484v97.976z"/></svg>