<svg height="512" width="512" xmlns="http://www.w3.org/2000/svg"><path d="M504.494 346.903c-.013 1.762-2.182 2.612-3.383 1.323-5.895-6.324-13.714-10.178-22.289-10.178-16.551 0-30.265 14.34-32.819 33.106-.193 1.421-1.764 2.194-2.977 1.427-5.283-3.338-11.173-4.677-16.999-3.363-10.516 2.353-18.058 12.665-20.347 25.851-.269 1.551-2.153 2.168-3.285 1.073-8.262-7.991-18.663-11.199-27.803-7.385-7.565 3.165-12.768 10.495-14.972 19.676l-21.548 2.44 15.012-82.624h39.349c2.881 0 5.51-1.64 6.776-4.227l39.068-79.805c4.035-8.243 14.66-10.602 21.823-4.864 17.672 14.154 44.839 45.961 44.394 107.55zm-496.989 0c.013 1.762 2.182 2.612 3.383 1.323 5.895-6.324 13.714-10.178 22.289-10.178 16.551 0 30.265 14.34 32.819 33.106.193 1.421 1.764 2.194 2.977 1.427 5.283-3.338 11.173-4.677 16.999-3.363 10.516 2.353 18.058 12.665 20.347 25.851.269 1.551 2.153 2.168 3.285 1.073 8.262-7.991 18.663-11.199 27.803-7.385 7.565 3.165 12.768 10.495 14.972 19.676l21.548 2.44-15.012-82.624h-39.349a7.543 7.543 0 01-6.776-4.227l-39.068-79.805c-4.035-8.243-14.66-10.602-21.823-4.864-17.671 14.154-44.838 45.961-44.394 107.55z" fill="#6fbbc6"/><path d="M380.016 492.936H131.983c-6.396 0-11.279-5.713-10.285-12.031l38.106-242.047h192.391l38.106 242.047c.995 6.318-3.889 12.031-10.285 12.031z" fill="#d09180"/><path d="M390.301 480.905l-38.106-242.047h-23.66l38.106 242.047c.995 6.318-3.889 12.031-10.285 12.031h23.66c6.396 0 11.28-5.713 10.285-12.031z" fill="#c77e67"/><path d="M342.055 492.936C339.318 424.147 301.84 369.645 256 369.645s-83.318 54.502-86.055 123.291z" fill="#f3d69e"/><path d="M256 369.645c-3.495 0-6.941.321-10.328.937 39.454 7.462 70.396 58.81 72.828 122.354h23.555C339.318 424.147 301.84 369.645 256 369.645z" fill="#edc472"/><path d="M403.551 21.379l-16.98 29.333a15.732 15.732 0 01-11.116 7.65l-42.907 6.905a24.138 24.138 0 00-18.628 14.998l-18.812 47.85 47.993 25.358 6.694-38.991a16.406 16.406 0 0113.784-13.455l26.56-3.902c15.942-2.342 27.272-16.739 25.801-32.785l-3.764-41.063c-.413-4.498-6.362-5.808-8.625-1.898zm-295.102 0l16.98 29.333a15.732 15.732 0 0011.116 7.65l42.907 6.905a24.138 24.138 0 0118.628 14.998l18.812 47.85-47.993 25.358-6.694-38.991a16.406 16.406 0 00-13.784-13.455l-26.56-3.902C105.919 94.783 94.589 80.386 96.06 64.34l3.764-41.063c.413-4.498 6.362-5.808 8.625-1.898z" fill="#f3d69e"/><path d="M213.867 303.199l-27.876-22.311c-25.123 71.688 10.966 78.653 12.986 70.957 3.856-14.692 8.007-36.21 14.89-48.646zm84.266 0l27.876-22.311c25.123 71.688-10.966 78.653-12.986 70.957-3.856-14.692-8.008-36.21-14.89-48.646z" fill="#f7f6f6"/><path d="M380.75 172.929v80.961c0 8.294-6.088 15.33-14.296 16.523l-20.152 2.928a9.83 9.83 0 00-8.222 7.784l-1.76 8.723c-3.491 17.305-18.696 29.749-36.349 29.749h-87.943c-17.653 0-32.859-12.445-36.35-29.749l-1.76-8.723a9.83 9.83 0 00-8.222-7.784l-20.152-2.928a16.696 16.696 0 01-14.296-16.523v-80.958c0-21.562 12.402-41.34 32.007-50.314a113.458 113.458 0 0144.713-10.282c14.82-.34 29.02 2.14 42.1 6.94 3.83 1.4 8.03 1.4 11.86 0 13.08-4.8 27.28-7.28 42.1-6.94a113.479 113.479 0 0144.714 10.279c19.607 8.973 32.008 28.753 32.008 50.314z" fill="#6fbbc6"/><path d="M348.744 122.615a113.475 113.475 0 00-44.714-10.279 115.84 115.84 0 00-14.514.58 113.449 113.449 0 0135.568 9.699c19.605 8.973 32.006 28.753 32.006 50.314v80.961c0 8.294-6.088 15.33-14.296 16.523l-20.151 2.927a9.83 9.83 0 00-8.222 7.784l-1.759 8.723c-3.491 17.304-18.697 29.749-36.35 29.749h23.66c17.653 0 32.859-12.445 36.349-29.749l1.76-8.723a9.83 9.83 0 018.222-7.784l20.152-2.928a16.696 16.696 0 0014.296-16.523v-80.961c-.001-21.56-12.402-41.34-32.007-50.313z" fill="#61aab8"/><path d="M180.967 186.906c-9.356 6.538-15.216 17.734-14.191 30.23 1.323 16.134 14.367 29.176 30.501 30.494 16.543 1.352 30.812-9.354 34.993-24.276.224-.798-.102-1.649-.777-2.13l-48.19-34.327a2.021 2.021 0 00-2.336.009zm150.066 0c9.356 6.538 15.216 17.734 14.191 30.23-1.323 16.134-14.367 29.176-30.501 30.494-16.543 1.352-30.812-9.354-34.993-24.276-.224-.798.102-1.649.777-2.13l48.19-34.327c.699-.499 1.631-.483 2.336.009z" fill="#f7f6f6"/><path d="M495.765 271.911c-9.806-19.096-22.255-31.431-30.976-38.419-5.212-4.169-11.931-5.725-18.438-4.264a21.682 21.682 0 00-14.806 11.692l-39.114 79.829H372.68l-6.72-42.687 1.572-.228c11.812-1.716 20.718-12.01 20.718-23.945v-80.963c0-22.729-12.207-43.6-31.507-54.62l.437-2.551a8.901 8.901 0 017.49-7.309l26.564-3.901c19.874-2.93 34.007-20.893 32.176-40.895l-3.762-41.073a12.102 12.102 0 00-9.495-10.735 12.095 12.095 0 00-13.094 5.773L380.08 46.943a8.207 8.207 0 01-5.823 4.006l-42.894 6.909c-10.992 1.76-20.352 9.294-24.425 19.661l-10.773 27.396c-12.631.527-24.981 2.97-36.814 7.312a9.767 9.767 0 01-6.7.003 121.142 121.142 0 00-36.823-7.318L205.057 77.52c-4.074-10.368-13.434-17.902-24.419-19.662l-42.903-6.911a8.204 8.204 0 01-5.818-4.003L114.94 17.62a12.086 12.086 0 00-13.096-5.778 12.105 12.105 0 00-9.496 10.748l-3.76 41.06c-1.833 20.001 12.3 37.965 32.179 40.896l26.562 3.9a8.898 8.898 0 017.486 7.296l.44 2.567c-19.3 11.021-31.507 31.893-31.507 54.621v80.959c0 11.935 8.906 22.229 20.718 23.945l1.572.228-6.719 42.669h-19.796l-39.067-79.806a21.684 21.684 0 00-14.809-11.698c-6.503-1.461-13.227.095-18.44 4.267a111.696 111.696 0 00-12.031 11.225 7.5 7.5 0 1011 10.197 96.786 96.786 0 0110.407-9.713 6.813 6.813 0 015.78-1.34c1.188.267 3.368 1.095 4.617 3.652l39.073 79.806c2.511 5.119 7.815 8.427 13.514 8.427h17.39l-6.916 43.929c-6.25-.141-12.652 1.742-18.589 5.491-4.378-12.226-13.039-20.854-23.826-23.263-5.214-1.184-10.537-.851-15.704.95-5.362-19.098-20.759-32.307-38.746-32.307-6.291 0-12.395 1.642-17.908 4.743 1.063-19.762 5.29-37.577 12.61-53.083a7.5 7.5 0 00-3.58-9.984 7.497 7.497 0 00-9.984 3.581C4.624 296.331-.19 320.269.006 346.94a9.41 9.41 0 006.022 8.76 9.4 9.4 0 0010.349-2.363c4.673-5.023 10.639-7.789 16.799-7.789 12.404 0 23.319 11.442 25.387 26.585a9.453 9.453 0 005.396 7.366 9.363 9.363 0 009.013-.579c2.636-1.665 6.745-3.43 11.361-2.382 7.159 1.599 12.752 9.191 14.596 19.815a9.44 9.44 0 006.401 7.381 9.41 9.41 0 009.479-2.202c4.065-3.927 8.578-6.243 12.854-6.746l-13.373 84.95a17.875 17.875 0 004.07 14.423 17.883 17.883 0 0013.617 6.281h248.045c5.245 0 10.208-2.29 13.617-6.281a17.868 17.868 0 004.071-14.416l-4.649-29.531a7.501 7.501 0 00-14.818 2.333l4.652 29.538a2.866 2.866 0 01-.662 2.334 2.875 2.875 0 01-2.211 1.022h-30.893c-1.79-23.956-7.91-48.752-19.393-70.404a7.12 7.12 0 00-.126-.229c-15.346-28.811-40.85-52.662-73.61-52.662-24.637 0-47.846 13.875-65.352 39.07-16.823 24.212-25.583 54.852-27.778 84.226h-30.893a2.878 2.878 0 01-2.211-1.022 2.868 2.868 0 01-.66-2.341l31.778-201.86 3.733.542a2.336 2.336 0 011.949 1.846l1.76 8.722a44.264 44.264 0 003.781 11.012c-3.494 16.774-3.297 30.608.604 41.141 4.951 13.368 14.036 16.908 17.713 17.81 1.387.34 2.751.503 4.064.503 5.704 0 10.439-3.072 11.746-8.046.843-3.22 5.225-21.305 6.711-26.653h86.108c1.486 5.347 2.828 10.878 4.135 16.274.892 3.681 1.733 7.158 2.578 10.385 1.305 4.969 6.039 8.04 11.743 8.04 1.313 0 2.68-.163 4.065-.503 3.677-.902 12.762-4.442 17.713-17.81 3.9-10.533 4.097-24.367.604-41.141a44.27 44.27 0 003.781-11.011l1.76-8.723a2.336 2.336 0 011.949-1.845l3.733-.542 21.657 137.578a7.5 7.5 0 0014.818-2.333l-3.255-20.676c4.275.503 8.783 2.813 12.833 6.726 5.443 5.298 14.601 2.323 15.902-5.161 1.844-10.623 7.437-18.215 14.62-19.819 4.595-1.042 8.701.724 11.314 2.373a9.376 9.376 0 009.033.595 9.446 9.446 0 005.395-7.338c2.07-15.172 12.985-26.614 25.39-26.614 6.16 0 12.126 2.766 16.799 7.789a9.398 9.398 0 0010.349 2.363 9.404 9.404 0 006.022-8.747c.211-28.422-5.249-53.67-16.226-75.043zM193.513 426.007h124.974c3.646 7.458 6.716 15.487 9.173 23.951H184.339c2.458-8.463 5.528-16.492 9.174-23.951zm9.454-16.232c14.62-21.042 33.454-32.629 53.033-32.629 22.626 0 41.15 15.076 53.85 33.861h-107.7c.275-.407.537-.83.817-1.232zm-22.258 55.183H331.29a184.946 184.946 0 012.784 20.484h-156.15a185.184 185.184 0 012.785-20.484zM320.901 83.007c2.143-5.452 7.061-9.413 12.843-10.338l42.897-6.91a23.15 23.15 0 0016.421-11.298l12.472-21.542 2.94 32.099c1.105 12.074-7.428 22.917-19.422 24.686l-26.56 3.9c-9.848 1.445-17.671 8.776-19.84 18.421a120.16 120.16 0 00-30.511-6.744zM149.508 93.605l-26.557-3.9c-11.999-1.769-20.531-12.612-19.425-24.687l2.939-32.099 12.473 21.544a23.149 23.149 0 0016.417 11.295l42.907 6.911c5.775.925 10.693 4.886 12.837 10.339l8.759 22.273a120.115 120.115 0 00-30.511 6.746c-2.162-9.639-9.988-16.977-19.839-18.422zm44.724 246.233c-.533 2.202-1.049 4.329-1.553 6.353-.781-.424-1.723-1.121-2.694-2.242-2.262-2.609-6.471-9.795-5.074-26.107a44.8 44.8 0 0013.11 6.971c-1.385 5.112-2.639 10.278-3.789 15.025zm127.782 4.111c-.972 1.121-1.913 1.817-2.694 2.242-.504-2.024-3.957-16.266-5.341-21.378a44.8 44.8 0 0013.11-6.971c1.396 16.313-2.813 23.499-5.075 26.107zm23.212-78.032c-7.227 1.05-13.053 6.564-14.496 13.723l-1.76 8.723c-2.774 13.751-14.97 23.732-28.998 23.732h-87.945c-14.028 0-26.224-9.981-28.998-23.733l-1.76-8.722c-1.443-7.159-7.27-12.673-14.496-13.723l-20.15-2.927c-4.489-.652-7.875-4.565-7.875-9.101V172.93c0-18.74 10.845-35.813 27.628-43.496 23.19-10.615 44.393-9.645 44.293-9.633 12.658 0 25.033 2.188 36.826 6.516a24.806 24.806 0 0017.019-.003c25.502-9.359 54.749-8.875 80.892 3.021.085.038.168.08.256.115 16.761 7.689 27.59 24.75 27.59 43.477v80.963c0 4.536-3.385 8.449-7.874 9.101l-9.091 1.321c-.027.004-.054.004-.081.009-.017.003-.033.008-.05.01zm133.598 64.632c-17.981 0-33.374 13.201-38.742 32.305-5.16-1.798-10.483-2.134-15.684-.954-10.807 2.414-19.471 11.042-23.85 23.266-5.933-3.746-12.336-5.63-18.591-5.49l-6.915-43.927h17.39c5.698 0 11.003-3.308 13.517-8.432l39.073-79.807c1.246-2.551 3.426-3.379 4.614-3.646a6.817 6.817 0 015.776 1.336c31.581 25.307 39.756 63.708 41.287 90.074-5.504-3.089-11.597-4.725-17.875-4.725z"/><path d="M235.845 215.112l-48.188-34.326c-3.268-2.329-7.683-2.342-10.987-.031-12.082 8.443-18.576 22.271-17.369 36.99 1.613 19.688 17.677 35.748 37.364 37.357 19.551 1.595 37.555-10.912 42.827-29.727 1.07-3.819-.394-7.944-3.647-10.263zm-37.959 25.041c-12.454-1.018-22.615-11.177-23.637-23.632-.661-8.073 2.322-15.722 8.089-21.105l8.032 5.721v19.33c0 4.142 3.357 7.5 7.5 7.5s7.5-3.358 7.5-7.5v-8.645l18.38 13.092c-4.432 9.887-14.751 16.145-25.864 15.239zm137.445-59.397c-3.306-2.312-7.72-2.297-10.984.029l-48.192 34.329c-3.252 2.317-4.717 6.442-3.646 10.261 4.971 17.74 21.254 29.866 39.471 29.865a41.12 41.12 0 003.355-.137c19.688-1.609 35.752-17.669 37.365-37.357 1.207-14.719-5.287-28.547-17.369-36.99zm2.42 35.765c-1.021 12.455-11.183 22.615-23.638 23.632-11.093.909-21.431-5.353-25.863-15.239l18.38-13.092v8.645c0 4.142 3.357 7.5 7.5 7.5s7.5-3.358 7.5-7.5v-19.33l8.032-5.721c5.767 5.383 8.75 13.031 8.089 21.105z"/></svg>