<svg xmlns="http://www.w3.org/2000/svg" height="512" width="512" viewBox="0 0 511.999 511.999"><path d="M146.997 88.044v189.658c0 3.281 3.016 5.712 6.231 5.053 19.057-3.907 38.367-6.84 57.651-9.229 18.858-2.336 37.836-4.045 56.842-4.44 33.538-.697 67.229 8.309 100.408 12.416 22.936 2.839 60.653 8.705 80.656-7.548a5.171 5.171 0 001.899-4.013V84.005a5.162 5.162 0 00-5.811-5.123c-10.891 1.367-33.445 2.538-35.247 2.614-44.917 1.894-84.468-10.568-128.468-14.89-44.425-4.363-90.119-2.262-131.209 16.768-1.812.838-2.952 2.674-2.952 4.67z" fill="#ff961d"/><path d="M450.678 84.009v185.927c0 1.559-.69 3.038-1.899 4.018-5.817 4.727-13.122 7.575-21.137 9.174.09-.42.14-.859.14-1.299V80.412c6.166-.44 12.612-.969 17.09-1.529a5.155 5.155 0 015.806 5.126zM106.002 504.504H77.405a4.997 4.997 0 01-4.997-4.997V43.784h38.591v455.724a4.996 4.996 0 01-4.997 4.996z" fill="#ff961d"/><path d="M106.002 504.504H92.186V43.784h18.813v455.724a4.996 4.996 0 01-4.997 4.996z" fill="#a04c27"/><circle cx="91.7" cy="37.882" r="30.387" fill="#ff961d"/><path d="M122.088 37.877c0 16.79-13.602 30.392-30.382 30.392-14.141 0-26.034-9.664-29.422-22.756 4.347 2.409 9.344 3.768 14.661 3.768 16.78 0 30.382-13.602 30.382-30.392 0-2.638-.34-5.187-.969-7.625 9.384 5.166 15.73 15.15 15.73 26.613z" fill="#ef8318"/><path d="M72.41 105.2H147v29.527H72.41zm0 124.93H147v29.527H72.41z" fill="#ffdba9"/><path d="M125.12 105.2h21.874v29.527H125.12zm0 124.93h21.874v29.527H125.12z" fill="#ffc473"/><path d="M359.984 174.174l-2.821-12.492a2.818 2.818 0 00-2.989-2.187l-29.735 2.549c-7.34.629-13.476-5.507-12.847-12.847l2.549-29.735a2.818 2.818 0 00-2.187-2.989l-12.495-2.821a2.825 2.825 0 00-1.241 0l-12.492 2.821a2.818 2.818 0 00-2.187 2.989l2.549 29.735c.629 7.34-5.507 13.476-12.847 12.847l-29.735-2.549a2.817 2.817 0 00-2.989 2.187l-2.821 12.492a2.825 2.825 0 000 1.241l2.821 12.495a2.818 2.818 0 002.989 2.187l29.735-2.549c7.34-.629 13.476 5.507 12.847 12.847l-2.549 29.735a2.817 2.817 0 002.187 2.989l12.492 2.821c.409.092.833.092 1.241 0l12.495-2.821a2.818 2.818 0 002.187-2.989l-2.549-29.735c-.629-7.34 5.507-13.476 12.847-12.847l29.735 2.549a2.818 2.818 0 002.989-2.187l2.821-12.495a2.795 2.795 0 000-1.241z" fill="#ffdba9"/><path d="M273.882 154.576l-29.734-2.549c-5.122-.433-9.812 3.003-10.942 8.004l-2.823 12.501a10.388 10.388 0 00.002 4.535l2.822 12.496c1.129 5 5.82 8.444 10.941 8.002l29.735-2.549c1.756-.157 2.933.729 3.472 1.267a4.324 4.324 0 011.267 3.472l-2.548 29.736c-.437 5.109 3.005 9.813 8.004 10.94l12.493 2.822a10.362 10.362 0 004.541 0l12.492-2.821c5.002-1.128 8.444-5.832 8.007-10.942l-2.548-29.735a4.324 4.324 0 011.267-3.472c.539-.539 1.705-1.422 3.472-1.267l29.733 2.549c5.109.426 9.812-3 10.943-8.004l2.824-12.505c.332-1.48.332-3.045-.001-4.525l-.002-.009-2.822-12.493c-1.129-5.001-5.822-8.448-10.941-8.003l-29.735 2.549c-1.767.151-2.933-.729-3.472-1.267a4.323 4.323 0 01-1.267-3.471l2.548-29.736c.437-5.109-3.005-9.813-8.005-10.94l-12.495-2.822a10.404 10.404 0 00-4.542 0l-12.489 2.821c-5.002 1.128-8.444 5.831-8.007 10.942l2.548 29.735a4.32 4.32 0 01-1.267 3.471c-.54.54-1.715 1.42-3.471 1.268zm14.071 9.333a19.334 19.334 0 005.602-15.352l-2.2-25.671 7.483-1.69 7.486 1.69-2.2 25.671a19.333 19.333 0 005.602 15.352 19.338 19.338 0 0015.353 5.604l25.671-2.2 1.69 7.483-1.69 7.486-25.671-2.2a19.332 19.332 0 00-15.353 5.604 19.334 19.334 0 00-5.602 15.352l2.2 25.671-7.486 1.69-7.483-1.69 2.2-25.671a19.334 19.334 0 00-5.602-15.352 19.332 19.332 0 00-15.353-5.604l-25.671 2.2-1.69-7.486 1.69-7.483 25.671 2.2a19.314 19.314 0 0015.353-5.604z"/><path d="M453.896 74.512a12.658 12.658 0 00-9.957-3.068c-10.336 1.297-32.447 2.47-34.628 2.562-27.584 1.16-52.84-3.203-79.586-7.824-15.417-2.664-31.358-5.418-47.834-7.036-15.902-1.562-30.434-2.175-44.422-1.881a7.495 7.495 0 00-7.334 7.653 7.495 7.495 0 007.491 7.337l.162-.001c13.392-.283 27.337.309 42.638 1.811 15.931 1.565 31.597 4.272 46.748 6.889 26.347 4.552 53.596 9.262 82.77 8.03 2.422-.102 21.734-1.126 33.245-2.363v182.196c-16.685 12.513-48.82 8.447-70.207 5.741-1.352-.171-2.663-.337-3.931-.494-10.842-1.342-22.031-3.266-32.849-5.126-22.377-3.848-45.497-7.82-68.635-7.345-17.241.359-36.084 1.829-57.607 4.495-20.551 2.546-38.732 5.418-55.465 8.764V89.537c12.023-5.435 25.088-9.635 38.858-12.49a7.496 7.496 0 00-3.043-14.679c-15.426 3.198-30.065 7.977-43.509 14.204-4.433 2.053-7.297 6.556-7.297 11.471v9.663h-21.007V64.64c6.85-6.858 11.092-16.322 11.092-26.757C129.586 16.994 112.593 0 91.704 0S53.822 16.994 53.822 37.882c0 10.435 4.242 19.898 11.091 26.756v434.869c0 6.888 5.604 12.492 12.492 12.492h28.597c6.888 0 12.492-5.604 12.492-12.492V384.589a7.495 7.495 0 10-14.99 0V497.01h-23.6V267.148h23.6v71.468a7.495 7.495 0 1014.99 0v-71.468h21.007v10.554c0 3.816 1.695 7.388 4.651 9.799a12.645 12.645 0 0010.58 2.597c17.105-3.507 35.771-6.495 57.067-9.133 21.009-2.603 39.352-4.037 56.076-4.385 21.676-.453 44.1 3.404 65.782 7.131 10.99 1.89 22.356 3.843 33.549 5.229 1.254.155 2.552.32 3.89.489 10.539 1.334 23.411 2.964 36.359 2.963 16.907 0 33.941-2.779 46.056-12.623a12.61 12.61 0 004.665-9.83V84.005a12.652 12.652 0 00-4.28-9.493zM68.813 37.882c0-12.622 10.269-22.891 22.891-22.891s22.891 10.269 22.891 22.891-10.269 22.891-22.891 22.891c-12.622.001-22.891-10.268-22.891-22.891zm34.691 35.991v23.833h-23.6V73.873a37.706 37.706 0 0011.8 1.892c4.12 0 8.084-.67 11.8-1.892zm-23.6 68.351h23.6v80.406h-23.6v-80.406zm59.597 109.934H79.904v-14.536h59.598l-.001 14.536zm0-29.527h-21.007v-80.406h21.007v80.406zm0-95.398H79.904v-14.536h59.598l-.001 14.536z"/></svg>