<svg height="512" viewBox="0 0 511.999 511.999" width="512" xmlns="http://www.w3.org/2000/svg"><path d="M256 28.609c-103.354 0-240.936 42.054-112.967 210.701h225.934C496.936 70.664 359.353 28.609 256 28.609z" fill="#f7f6f6"/><path d="M256 28.609c-4.486 0-9.038.081-13.628.247 101.17 3.645 221.753 49.128 99.338 210.455h27.257C496.936 70.664 359.353 28.609 256 28.609z" fill="#dcd2cd"/><path d="M397.381 206.128H114.618c-15.013 0-27.186 12.169-27.186 27.181 0 15.013 12.174 27.186 27.186 27.186h282.763c15.013 0 27.186-12.174 27.186-27.186.001-15.012-12.173-27.181-27.186-27.181z" fill="#bcd1e1"/><path d="M394.98 504.498H117.02c-45.258 0-54.78-38.397-37.831-81.92 4.345-11.135 10.415-22.608 18.068-33.856 27.847-40.954 76.618-78.969 138.825-87.166 12.501-1.654 27.336-1.654 39.837-.001 62.207 8.197 110.978 46.212 138.825 87.167 7.653 11.248 13.722 22.721 18.067 33.856 16.948 43.523 7.427 81.92-37.831 81.92z" fill="#81a9c8"/><path d="M432.81 422.579c-4.345-11.135-10.415-22.608-18.067-33.856-27.847-40.955-76.618-78.97-138.825-87.167-10.096-1.336-21.697-1.575-32.379-.753 2.544.196 5.052.433 7.457.752 62.207 8.197 110.979 46.214 138.826 87.168 7.653 11.248 13.723 22.722 18.068 33.856 16.949 43.522 7.427 81.919-37.832 81.919h24.921c45.259 0 54.78-38.397 37.831-81.919z" fill="#5d91b9"/><path d="M223.81 404.872v99.626h-83c-10.06-16.74-10.39-47.5-2.83-80.9 2.9-12.78 6.95-25.96 12.06-38.87 11.01-27.86 26.93-54.53 46.71-73.6 8.22-2.96 16.77-5.4 25.62-7.25-14.56 10.03-24.04 26.4-24.04 44.89 0 15.991 7.101 30.401 18.448 40.488a20.898 20.898 0 017.032 15.616zm147.38 99.626h-83v-99.626a20.898 20.898 0 017.032-15.616c11.347-10.087 18.448-24.497 18.448-40.488 0-18.49-9.48-34.86-24.04-44.89 8.85 1.85 17.4 4.29 25.62 7.25 19.78 19.07 35.7 45.74 46.71 73.6 5.11 12.91 9.16 26.09 12.06 38.87 7.56 33.4 7.23 64.16-2.83 80.9z" fill="#f3d69e"/><path d="M371.28 251.608c0 23.69-17.08 55.69-38.28 80.01-9.68 11.12-21.56 19.83-34.7 25.77-13.15 5.94-27.56 9.1-42.3 9.1-29.49 0-57.63-12.64-77-34.87-21.2-24.32-38.28-56.32-38.28-80.01 0-19.57 2.45-48.78 9.02-78.1.59-2.64 1.28-5.23 2.06-7.78l104.2-49.98 104.2 49.98c.78 2.55 1.47 5.14 2.06 7.78 6.57 29.32 9.02 58.53 9.02 78.1z" fill="#99bad3"/><path d="M249.412 11.558l-27.224 54.083a28.244 28.244 0 006.08 33.461L256 124.679l27.732-25.576a28.244 28.244 0 006.08-33.461l-27.224-54.083c-2.725-5.414-10.452-5.414-13.176-.001z" fill="#92e0c4"/><circle cx="257.168" cy="108.783" fill="#f3d69e" r="28.425"/><path d="M439.797 419.854c-8.199-21.023-21.602-41.87-38.76-60.287a7.5 7.5 0 00-10.975 10.225c15.878 17.043 28.244 36.239 35.759 55.509 9.418 24.182 9.837 45.339 1.149 58.046-6.193 9.059-16.957 13.652-31.99 13.652h-12.336c5.886-18.451 5.512-44.919-1.31-75.06-3.049-13.436-7.221-26.884-12.399-39.967-7.195-18.21-16.255-35.34-26.366-49.927a200.329 200.329 0 0123.152 15.508 7.5 7.5 0 109.197-11.849 215.634 215.634 0 00-23.248-15.73c12.357-17.503 21.188-35.881 25.004-51.977h20.708c19.126 0 34.686-15.562 34.686-34.688 0-17.127-12.237-30.804-27.634-33.964 25.654-46.012 30.511-84.578 14.39-114.752-11.101-20.778-31.813-36.859-61.56-47.796-22.697-8.345-50.693-13.555-81.198-15.149l-6.78-13.47C266.74 3.134 261.649 0 256 0s-10.74 3.134-13.289 8.185l-6.771 13.452c-28.553 1.502-55.055 6.189-76.881 13.632a7.5 7.5 0 004.841 14.197c18.351-6.257 40.351-10.447 64.219-12.29l-12.628 25.088c-6.824 13.551-4.23 30.051 6.199 40.874a35.843 35.843 0 002.38 19.611l-75.513 36.215a7.503 7.503 0 00-3.929 4.569c-.848 2.77-1.59 5.576-2.206 8.333-1.923 8.583-3.581 17.625-4.945 26.76H124.45c-36.732-61.896-33.835-107.191 8.642-134.66a7.5 7.5 0 10-8.146-12.596c-33.934 21.945-63.503 65.274-17.38 147.98-15.756 3.266-27.635 17.251-27.635 33.959 0 9.265 3.606 17.974 10.149 24.517 6.545 6.558 15.259 10.17 24.536 10.17h20.708c3.815 16.095 12.645 34.47 24.999 51.971-40.062 23.447-72.67 60.256-88.124 99.89-11.244 28.869-11.081 55.096.446 71.956 6.296 9.209 19.106 20.186 44.373 20.186H394.98c25.268 0 38.077-10.978 44.373-20.186 11.527-16.86 11.69-43.087.444-71.959zm-73.092 5.401c6.846 30.247 6.759 56.546-.065 71.744h-70.95v-92.13c0-3.805 1.646-7.453 4.513-10.005 12.306-10.94 19.75-26.11 20.819-42.11a108.713 108.713 0 0011.121-9.369c8.698 13.027 16.519 28.099 22.844 44.105 4.897 12.372 8.84 25.08 11.718 37.765zM145.36 496.999c-6.824-15.198-6.912-41.497-.066-71.74 2.879-12.689 6.822-25.396 11.721-37.774 6.323-16.002 14.144-31.073 22.842-44.101a108.693 108.693 0 0011.121 9.369c1.068 16 8.512 31.17 20.815 42.107 2.87 2.555 4.517 6.203 4.517 10.008v92.13h-70.95zm76.402-113.346c-6.482-5.762-11.121-12.822-13.667-20.602 14.74 7.118 31.088 10.938 47.904 10.938s33.164-3.82 47.904-10.938c-2.546 7.78-7.186 14.841-13.67 20.605-6.065 5.398-9.544 13.13-9.544 21.212v92.13h-49.38v-92.13c.001-8.081-3.478-15.813-9.547-21.215zm195.306-150.344c0 10.855-8.831 19.687-19.687 19.687h-18.63c.186-7.387-.394-22.663-2.267-39.369h15.284l.015.001.016-.001c3.028.393 11.93-1.815 19.508 5.763a19.56 19.56 0 015.761 13.919zM405.594 91.662c14.287 26.74 8.208 62.716-18.047 106.966h-13.023c-1.364-9.135-3.021-18.175-4.944-26.756-1.777-7.95-2.56-11.191-6.135-12.906l-73.593-35.299a35.741 35.741 0 002.378-22.69c8.792-10.775 10.647-26.057 4.281-38.712l-12.62-25.074c36.676 2.892 99.993 13.838 121.703 54.471zm-169.351 17.121c0-11.538 9.387-20.925 20.925-20.925s20.925 9.387 20.925 20.925-9.387 20.925-20.925 20.925-20.925-9.387-20.925-20.925zm-7.354-39.774l27.112-53.861 27.109 53.861c2.564 5.096 2.831 10.926 1.051 16.106-6.589-7.506-16.244-12.258-26.993-12.258-11.637 0-21.994 5.566-28.563 14.17-2.58-5.618-2.609-12.272.284-18.018zm-70.815 102.028l74.761-35.854c6.405 5.908 14.953 9.525 24.333 9.525 8.988 0 17.21-3.326 23.517-8.801l73.241 35.13a96.54 96.54 0 011.016 4.111c5.534 24.697 8.838 53.281 8.838 76.46 0 28.662-29.593 74.089-54.295 90.933-1.268.61-21.565 16.448-53.485 16.448-19.296 0-37.87-5.821-53.418-16.402l-.111-.076c-10.408-7.105-17.469-14.784-25.241-24.893l-.037-.048c-18.039-22.577-28.973-48.421-28.973-65.961 0-23.179 3.304-51.763 8.839-76.465.304-1.36.643-2.733 1.015-4.107zm-43.457 81.96c-5.266 0-10.209-2.048-13.924-5.771a19.554 19.554 0 01-5.762-13.916c0-10.852 8.831-19.681 19.686-19.681h20.897c-1.886 16.825-2.451 32.08-2.267 39.369h-18.63zm-29.588 230.35c-8.688-12.707-8.269-33.864 1.148-58.043 14.457-37.078 45.34-71.553 83.266-93.277-10.116 14.591-19.18 31.728-26.377 49.942-5.18 13.086-9.352 26.535-12.401 39.975-6.822 30.137-7.195 56.605-1.309 75.056H117.02c-15.035-.001-25.798-4.594-31.991-13.653z"/><path d="M256 252.949c15.671 0 28.421-12.75 28.421-28.421v-10.195a7.5 7.5 0 00-15 0v10.195c0 7.4-6.021 13.421-13.421 13.421s-13.421-6.021-13.421-13.421v-10.195a7.5 7.5 0 00-15 0v10.195c-.001 15.671 12.749 28.421 28.421 28.421zm-56.499-53.22a7.5 7.5 0 00-7.5 7.5v7.797a7.5 7.5 0 0015 0v-7.797a7.5 7.5 0 00-7.5-7.5zm-18.181-13.477c.705 0 1.422-.1 2.132-.311 10.697-3.167 21.992-3.224 34.529-.174a7.5 7.5 0 003.546-14.576c-14.97-3.641-29.213-3.518-42.334.367a7.5 7.5 0 00-5.062 9.321 7.505 7.505 0 007.189 5.373zm131.178 13.477a7.5 7.5 0 00-7.5 7.5v7.797a7.5 7.5 0 0015 0v-7.797a7.5 7.5 0 00-7.5-7.5zm-18.48-13.962c12.537-3.05 23.832-2.993 34.529.174.711.21 1.427.311 2.132.311a7.505 7.505 0 007.189-5.373 7.5 7.5 0 00-5.062-9.321c-13.121-3.885-27.364-4.008-42.334-.367a7.501 7.501 0 003.546 14.576zm-2.27 79.136c-24.055 14.431-47.443 14.431-71.497 0a7.5 7.5 0 00-7.717 12.863c14.421 8.65 28.943 12.976 43.465 12.976s29.045-4.326 43.465-12.976a7.5 7.5 0 002.573-10.29 7.497 7.497 0 00-10.289-2.573z"/></svg>