<svg xmlns="http://www.w3.org/2000/svg" height="512" width="512" viewBox="0 0 511.998 511.998"><path d="M419.263 432.132l-2.015-3.782c-4.81-9.03-5.233-20.368-1.115-29.859l1.429-3.294c4.332-9.984 3.624-21.964-1.84-31.147-5.87-9.864-6.217-22.879-.885-33.157l5.043-9.721c3.056-5.89 4.311-12.831 3.558-19.674L409.494 174.86H102.5L88.556 301.498c-.753 6.843.502 13.784 3.558 19.674l5.043 9.721c5.332 10.278 4.985 23.293-.885 33.157-5.465 9.183-6.172 21.163-1.841 31.147l1.429 3.293c4.118 9.491 3.695 20.829-1.115 29.859l-2.015 3.782c-5.734 10.766.847 24.745 11.649 24.745h303.234c10.803.001 17.384-13.978 11.65-24.744z" fill="#b76035"/><path d="M419.258 432.131c5.74 10.768-.845 24.751-11.645 24.751h-47.236c10.799 0 17.373-13.984 11.645-24.751l-2.019-3.782c-4.801-9.028-5.235-20.362-1.115-29.859l1.432-3.286c4.332-9.994 3.627-21.977-1.843-31.157-3.099-5.191-4.649-11.278-4.649-17.366 0-5.453 1.244-10.933 3.768-15.792l5.036-9.718c3.064-5.895 4.32-12.824 3.569-19.672l-13.945-126.643h47.236l13.945 126.643c.751 6.847-.505 13.777-3.557 19.672l-5.048 9.718c-2.512 4.859-3.768 10.326-3.768 15.779 0 6.102 1.561 12.175 4.66 17.38 5.458 9.18 6.175 21.163 1.843 31.157l-1.432 3.286c-4.12 9.497-3.698 20.831 1.115 29.859l2.008 3.781z" fill="#a04c27"/><path d="M291.313 406.341H220.68c-50.624 0-91.663-41.039-91.663-91.663V195.912h253.96v118.766c0 50.624-41.039 91.663-91.664 91.663z" fill="#f3d1bb"/><path d="M382.98 195.915v118.76c0 50.63-41.043 91.662-91.662 91.662H255.08c50.63 0 91.662-41.032 91.662-91.662v-118.76h36.238z" fill="#e8c0a8"/><path d="M129.017 257.214h-2.027c-18.89 0-34.203 15.313-34.203 34.203S108.1 325.62 126.99 325.62h2.027v-68.406z" fill="#f3d1bb"/><path d="M410.115 314.64c-6.248 6.753-15.186 10.981-25.112 10.981h-2.027v-68.407h2.027c18.89 0 34.203 15.313 34.203 34.203a34.077 34.077 0 01-9.091 23.223z" fill="#e8c0a8"/><g fill="#b76035"><path d="M242.874 209.942c-20.68 50.272-85.227 51.401-126.592 43.85-7.087-1.294-14.24-2.8-21.147-5.099v-33.958c0-71.744 52.671-129.904 117.644-129.904h43.004c.368 14.25.375 28.526.189 42.78-.341 26.123-3.087 49.231-10.249 74.125a78.954 78.954 0 01-2.849 8.206z"/><path d="M269.12 209.942c20.68 50.272 85.227 51.401 126.592 43.85 7.087-1.294 14.24-2.8 21.147-5.099v-33.958c0-71.744-52.671-129.904-117.644-129.904h-43.004c-.368 14.25-.375 28.526-.189 42.78.341 26.123 3.087 49.231 10.249 74.125a78.722 78.722 0 002.849 8.206z"/></g><g fill="#a04c27"><path d="M416.857 231.136v17.561c-6.901 2.294-14.061 3.799-21.141 5.096-41.364 7.549-105.913 6.422-126.596-43.847a80.163 80.163 0 01-2.852-8.207c-7.16-24.9-9.902-48.006-10.251-74.122-.179-14.26-.179-28.53.189-42.78h17.162c-.03 6.941.02 13.881.11 20.812.339 26.127 3.081 49.232 10.251 74.132a77.628 77.628 0 002.842 8.197c20.682 50.279 85.231 51.406 126.596 43.857 1.227-.23 2.463-.46 3.69-.699z"/><path d="M95.135 231.136v17.561c6.901 2.294 14.061 3.799 21.141 5.096 41.364 7.549 105.914 6.422 126.596-43.847a80.163 80.163 0 002.852-8.207c7.16-24.9 9.902-48.006 10.251-74.122.18-14.26.18-28.53-.189-42.78h-17.162c.03 6.941-.02 13.881-.11 20.812-.339 26.127-3.081 49.232-10.251 74.132a77.628 77.628 0 01-2.842 8.197c-20.682 50.279-85.231 51.406-126.596 43.857-1.226-.23-2.463-.46-3.69-.699z"/></g><path d="M365.626 504.521v-36.187c0-20.736-11.299-40.581-29.975-52.71-9.437-6.129-20.49-10.144-32.013-11.604-14.942-1.894-15.142-1.486-15.142-15.575v-9.297h-64.999v9.297c0 14.09-.199 13.681-15.142 15.575-11.523 1.461-22.577 5.475-32.013 11.604-18.675 12.129-29.975 31.974-29.975 52.71v36.187h219.259z" fill="#d5f0f7"/><path d="M365.63 468.332v36.189h-24.142v-41.813c0-21.909-10.909-42.95-29.278-57.11 8.396 2.034 16.374 5.435 23.444 10.022 18.678 12.136 29.976 31.98 29.976 52.712z" fill="#a6dfe8"/><path d="M273.356 333.819h-34.719v-13.283c0-6.701 5.432-12.134 12.134-12.134h10.452c6.701 0 12.134 5.432 12.134 12.134v13.283h-.001z" fill="#e0b8a2"/><path d="M382.767 366.602l-.974-64.374-40.177 20.17a24.115 24.115 0 01-13.557 2.407l-25.867-2.958a24.113 24.113 0 00-9.709.873l-29.516 8.913a24.104 24.104 0 01-13.94 0l-29.516-8.913a24.113 24.113 0 00-9.709-.873l-25.867 2.958a24.107 24.107 0 01-13.557-2.407l-40.177-20.17-.974 64.374.547.585a15.728 15.728 0 00-.547 4.056c0 6.648 4.122 12.326 9.948 14.635 2.053.814 3.2 2.973 2.899 5.161a22.818 22.818 0 00-.203 3.807c.366 12.368 10.821 22.384 23.194 22.233a22.791 22.791 0 009.033-1.976 4.746 4.746 0 015.505 1.228c4.202 4.849 10.404 7.916 17.324 7.916a22.79 22.79 0 0010.243-2.416c2.39-1.198 5.233-.076 6.433 2.313 2.588 5.153 7.919 8.689 14.079 8.689 2.302 0 4.486-.497 6.455-1.388 2.526-1.143 5.436-.053 6.556 2.484 2.572 5.827 8.31 9.928 15.039 10.136v.02c.09 0 .177-.009.266-.01.089.001.177.01.266.01v-.02c6.729-.208 12.467-4.309 15.039-10.136 1.12-2.537 4.03-3.627 6.556-2.484a15.605 15.605 0 006.454 1.388c6.159 0 11.49-3.536 14.079-8.689 1.2-2.389 4.043-3.511 6.433-2.313a22.793 22.793 0 0010.243 2.416c6.919 0 13.121-3.067 17.323-7.916a4.746 4.746 0 015.505-1.229 22.787 22.787 0 009.04 1.976c12.828.154 23.478-10.605 23.192-23.431-.02-.883-.09-1.753-.208-2.608-.301-2.188.846-4.348 2.899-5.162 5.826-2.309 9.948-7.987 9.948-14.635 0-1.405-.202-2.76-.547-4.056l.547-.584z" fill="#b76035"/><path d="M382.224 367.185a16 16 0 01.538 4.059c0 6.651-4.118 12.325-9.942 14.629-2.054.818-3.201 2.982-2.902 5.165.12.858.189 1.725.209 2.613.289 12.824-10.361 23.584-23.195 23.424a22.77 22.77 0 01-9.035-1.975 4.674 4.674 0 00-4.029.1c-.03-.997-.1-1.974-.239-2.942-.349-2.553.987-5.076 3.381-6.023 6.791-2.692 11.598-9.314 11.598-17.062 0-23.248-.624-46.527-.977-69.795l34.164-17.152.967 64.38-.538.579z" fill="#a04c27"/><path d="M217.859 504.521l33.718-29.795a5.292 5.292 0 016.904-.09l35.654 29.882-76.276.003z" fill="#a7a8a8"/><path d="M312.437 54.137l-52.788-45.43a4.986 4.986 0 00-6.494-.009l-53.093 45.439-71.142-17.352c-3.625-.884-6.902 2.381-6.029 6.01l16.855 70.102h233.01l16.855-70.102c.872-3.628-2.404-6.894-6.029-6.01l-71.145 17.352z" fill="#ff961d"/><path d="M389.613 42.793l-16.863 70.104h-27.603L362 42.793c.06-.259.1-.509.12-.768l21.46-5.235c3.62-.887 6.9 2.373 6.033 6.003z" fill="#ef8318"/><path d="M410.01 171.023l-3.355-37.138c-.735-8.132-6.528-14.947-14.461-16.878-55.368-13.479-135.454-12.727-136.197-12.72-.743-.007-80.829-.759-136.197 12.72-7.933 1.931-13.727 8.746-14.461 16.878l-3.355 37.138s99.038-14.654 154.013-14.657c54.975.003 154.013 14.657 154.013 14.657z" fill="#ff961d"/><path d="M410.006 171.024s-10.85-1.606-27.363-3.759l-3.66-40.517a22.889 22.889 0 00-6.263-13.771c6.711 1.177 13.243 2.513 19.476 4.029 7.928 1.935 13.722 8.746 14.46 16.883l3.35 37.135z" fill="#ef8318"/><path d="M221.246 270.431a7.479 7.479 0 00-7.479 7.479v18.531a7.479 7.479 0 0014.958 0V277.91a7.479 7.479 0 00-7.479-7.479zm69.502 0a7.479 7.479 0 00-7.479 7.479v18.531a7.479 7.479 0 0014.958 0V277.91a7.48 7.48 0 00-7.479-7.479z"/><path d="M423.849 424.834c-3.737-7.015-4.064-15.969-.854-23.367l1.429-3.292c5.282-12.173 4.411-26.715-2.274-37.949-4.578-7.692-4.841-17.854-.673-25.888l5.044-9.721c3.718-7.166 5.263-15.667 4.353-23.937l-6.534-59.341v-26.603c0-15.801-2.453-30.981-6.945-45.122l-3.288-36.402c-1.025-11.356-9.12-20.789-20.141-23.472a291.698 291.698 0 00-12.117-2.664l2.103-8.745a7.478 7.478 0 00-5.523-9.02c-4.012-.967-8.054 1.507-9.02 5.523l-2.313 9.619c-50.902-8.054-107.488-7.678-111.099-7.645-3.605-.033-59.84-.408-110.61 7.568L131.116 45.02l67.172 16.384a7.478 7.478 0 006.635-1.584l51.468-44.048 51.167 44.034a7.48 7.48 0 006.651 1.598l67.172-16.384-1.32 5.491a7.478 7.478 0 005.524 9.02c4.013.969 8.055-1.507 9.02-5.523l2.275-9.464a12.378 12.378 0 00-3.319-11.742c-3.103-3.093-7.497-4.318-11.754-3.282L314.4 45.96 264.526 3.038c-4.699-4.043-11.527-4.052-16.235-.022L198.11 45.963l-67.419-16.444a12.373 12.373 0 00-11.754 3.282 12.374 12.374 0 00-3.319 11.742l15.011 62.436c-4.297.848-8.51 1.765-12.597 2.76-11.021 2.683-19.116 12.115-20.141 23.471l-3.289 36.413c-4.491 14.137-6.944 29.314-6.944 45.112v29.72c-.108-.046-.222-.085-.328-.134l-6.205 56.358c-.911 8.27.635 16.771 4.353 23.938l5.044 9.72c4.168 8.034 3.904 18.196-.674 25.888-6.685 11.234-7.556 25.776-2.274 37.948l1.429 3.294c3.21 7.397 2.883 16.35-.855 23.365l-2.015 3.783c-4.223 7.929-3.983 17.624.626 25.301 3.924 6.536 10.513 10.438 17.623 10.438h34.645a65.785 65.785 0 00-.136 3.978v36.187a7.48 7.48 0 007.479 7.479h219.258a7.479 7.479 0 007.479-7.479v-36.187c0-1.331-.055-2.656-.136-3.978h34.645c7.111 0 13.699-3.902 17.624-10.438 4.609-7.677 4.849-17.372.626-25.301l-2.017-3.781zm-12.711-166.699l.105.951c-.302-.245-.597-.499-.906-.737.265-.066.535-.146.801-.214zm.59 33.283c0 6.75-2.522 13.194-7.102 18.143-3.857 4.168-8.764 6.926-14.17 8.033v-52.342c12.129 2.525 21.272 13.298 21.272 26.166zm-2.348-76.682v28.406c-5.199 1.424-10.404 2.452-15.011 3.293-14.153 2.583-41.809 5.997-67.996-.164-25.142-5.917-42.077-19.096-50.336-39.174a71.822 71.822 0 01-2.578-7.429 243.578 243.578 0 01-7.454-35.675c47.735 1.314 119.369 11.083 138.231 13.756 3.338 11.674 5.144 24.1 5.144 36.987zm-296.593-80.179c.45-4.982 3.979-9.114 8.782-10.283 53.975-13.139 133.559-12.515 134.354-12.508h.147c.797-.007 80.38-.632 134.354 12.508 4.803 1.169 8.332 5.302 8.782 10.284l2.505 27.724c-26.155-3.653-100.147-13.392-145.715-13.394-45.567.002-119.558 9.741-145.714 13.394l2.505-27.725zm-10.173 80.179c0-12.887 1.807-25.312 5.144-36.987 18.861-2.672 90.497-12.441 138.231-13.756a243.458 243.458 0 01-7.453 35.676 71.804 71.804 0 01-2.578 7.428c-4.886 11.878-12.873 21.422-23.813 28.415l-1.383.907a7.48 7.48 0 008.203 12.509l1.31-.86c13.508-8.633 23.439-20.503 29.517-35.281a86.856 86.856 0 003.12-8.983 267.075 267.075 0 003.087-11.748 267.075 267.075 0 003.087 11.748 86.639 86.639 0 003.12 8.984c10.056 24.446 31.06 41.059 60.743 48.044 12.111 2.85 24.42 3.854 35.763 3.854 5.916 0 11.567-.274 16.789-.702v33.036l-37.237 18.694a16.59 16.59 0 01-9.352 1.66l-25.867-2.958a31.442 31.442 0 00-12.721 1.145l-9.598 2.899c-1.041-9.841-9.387-17.536-19.5-17.536h-10.452c-10.112 0-18.458 7.695-19.5 17.536l-9.599-2.899a31.43 31.43 0 00-12.72-1.144l-25.868 2.958a16.578 16.578 0 01-9.351-1.66l-37.237-18.694V264a203.04 203.04 0 0016.661.701c6.09 0 12.434-.292 18.881-.993a7.48 7.48 0 00-1.618-14.87c-20.53 2.234-40.043-.073-52.797-2.401-4.607-.841-9.811-1.869-15.011-3.293v-28.408h-.001zM362.51 392.06c.079.577.127 1.168.14 1.754.093 4.157-1.511 8.118-4.517 11.154-3.005 3.037-7.001 4.686-11.109 4.632a15.277 15.277 0 01-6.082-1.328c-4.868-2.172-10.709-.873-14.205 3.161a15.439 15.439 0 01-11.671 5.335c-2.425 0-4.744-.546-6.891-1.622-6.006-3.011-13.394-.481-16.468 5.641a8.237 8.237 0 01-7.396 4.567 8.107 8.107 0 01-3.37-.723c-3.063-1.385-6.464-1.493-9.578-.303-3.102 1.186-5.554 3.523-6.904 6.581a9.582 9.582 0 01-8.498 5.68 9.58 9.58 0 01-8.427-5.679c-1.35-3.058-3.802-5.396-6.904-6.582a12.352 12.352 0 00-9.576.303 8.136 8.136 0 01-3.372.723 8.239 8.239 0 01-7.396-4.567c-3.075-6.121-10.462-8.653-16.467-5.641a15.238 15.238 0 01-6.892 1.622 15.44 15.44 0 01-11.672-5.336c-3.495-4.033-9.336-5.332-14.205-3.16a15.261 15.261 0 01-6.076 1.327l-.179.001c-8.151 0-15.206-6.818-15.448-14.974-.025-.86.021-1.725.137-2.569.779-5.661-2.327-11.061-7.554-13.133a8.22 8.22 0 01-5.224-7.672c.005-1.236.459-33.15.801-56.988l29.514 14.817a31.526 31.526 0 0017.762 3.154l25.867-2.958a16.507 16.507 0 016.697.602l29.516 8.914a31.494 31.494 0 0018.264 0l29.516-8.913a16.5 16.5 0 016.698-.603l25.867 2.958a31.518 31.518 0 0017.763-3.154l29.514-14.817c.342 23.838.797 55.751.801 56.978a8.223 8.223 0 01-5.224 7.682c-5.225 2.072-8.331 7.472-7.552 13.136zm-116.394-69.118v-2.406a4.66 4.66 0 014.654-4.655h10.452a4.66 4.66 0 014.654 4.655v2.406l-5.072 1.532a16.599 16.599 0 01-9.617 0l-5.071-1.532zm-145.261-64.807c.266.068.536.148.801.214-.309.237-.604.491-.906.737l.105-.951zm20.683 7.117v52.331c-12.13-2.525-21.272-13.297-21.272-26.165s9.143-23.641 21.272-26.166zm20.148 184.146h-37.307c-2.514 0-4.086-1.993-4.799-3.18-1.437-2.394-2.364-6.598-.248-10.57l2.015-3.783c5.917-11.109 6.431-24.698 1.375-36.351l-1.429-3.295c-3.351-7.722-2.799-17.278 1.407-24.345 7.162-12.037 7.593-27.905 1.096-40.426l-1.162-2.24a41.453 41.453 0 0019.649 7.618c-.259 18.163-.534 37.621-.534 38.416 0 8.861 4.925 16.775 12.714 20.709a30.542 30.542 0 00-.067 3.115c.395 13.351 9.547 24.572 21.78 28.23-6.719 7.712-11.649 16.604-14.49 26.102zm95.933 47.643l17.5-15.464 18.449 15.462-35.949.002zm120.528.001h-61.289l-33.573-28.138c-4.881-4.091-11.889-4-16.661.218l-31.596 27.92h-61.181v-28.708c0-16.987 8.588-33.182 23.161-44.058a30.372 30.372 0 0019.919 7.45c3.883 0 7.633-.714 11.184-2.127 4.246 6.663 11.545 10.712 19.571 10.712 2.499 0 4.936-.391 7.274-1.167 4.072 7.153 11.595 11.88 19.877 12.365.38.046.771.061 1.164.05.089.002.177.004.267.004.302 0 .601-.018.893-.053 8.283-.484 15.809-5.212 19.881-12.366a23.018 23.018 0 007.274 1.167c8.026 0 15.324-4.049 19.571-10.712a30.083 30.083 0 0011.184 2.127 30.37 30.37 0 0019.919-7.45c14.574 10.876 23.161 27.071 23.161 44.058v28.708zm54.266-50.824c-.713 1.187-2.285 3.18-4.799 3.18h-37.306c-2.842-9.504-7.775-18.401-14.499-26.115a30.73 30.73 0 0012.956-7.791c5.799-5.859 9.021-13.881 8.84-22.013a31.242 31.242 0 00-.073-1.528c7.789-3.934 12.714-11.848 12.714-20.708 0-.795-.275-20.256-.534-38.42a41.902 41.902 0 0019.639-7.595l-1.152 2.221c-6.496 12.522-6.066 28.39 1.097 40.426 4.205 7.067 4.757 16.624 1.406 24.347l-1.429 3.293c-5.057 11.653-4.542 25.243 1.375 36.352l2.015 3.782c2.114 3.972 1.187 8.176-.25 10.569z"/><path d="M187.019 453.981c3.004-2.834 3.142-7.568.307-10.572s-7.567-3.143-10.572-.307l-5.736 5.412a7.48 7.48 0 0010.265 10.88l5.736-5.413zm28.396-8.168l-5.736 5.412a7.478 7.478 0 00-.307 10.572 7.455 7.455 0 005.441 2.347 7.455 7.455 0 005.131-2.039l5.736-5.412a7.48 7.48 0 00-10.265-10.88zm-26.78 24.42l-5.736 5.412a7.478 7.478 0 00-.307 10.572 7.455 7.455 0 005.441 2.347 7.455 7.455 0 005.131-2.039l5.736-5.412a7.48 7.48 0 00-10.265-10.88zm146.605-27.132a7.478 7.478 0 10-10.265 10.879l5.736 5.412a7.455 7.455 0 005.131 2.039 7.48 7.48 0 005.134-12.919l-5.736-5.411zm-38.661 2.712a7.48 7.48 0 00-10.265 10.88l5.736 5.412a7.455 7.455 0 005.131 2.039c1.987 0 3.97-.787 5.441-2.347a7.478 7.478 0 00-.307-10.572l-5.736-5.412zm26.78 24.42a7.48 7.48 0 00-10.265 10.88l5.736 5.412a7.455 7.455 0 005.131 2.039c1.987 0 3.97-.787 5.441-2.347a7.478 7.478 0 00-.307-10.572l-5.736-5.412z"/></svg>