<svg height="512" viewBox="0 0 512.003 512.003" width="512" xmlns="http://www.w3.org/2000/svg"><path d="M165.395 339.727l31.738-32H314.87l29.548 32-88.205 90.659z" fill="#685e67"/><path d="M439.792 313.187h-96.161c-11.464 0-22.412 5.004-29.728 13.829-9.495 11.453-27.271 27.871-57.902 40.703v-.001c-30.631-12.832-48.407-29.25-57.902-40.703-7.317-8.826-18.264-13.829-29.728-13.829h-96.16s-19.288 89.694 45.142 145.397c65.995 57.057 138.649 44.811 138.649 44.811v.001s72.654 12.246 138.649-44.811c64.43-55.703 45.141-145.397 45.141-145.397z" fill="#f2eff2"/><path d="M159.817 307.727l-10.52 35.888c-2.782 9.489 2.656 19.437 12.145 22.218 9.489 2.782 19.437-2.656 22.218-12.145l13.473-45.962h-37.316z" fill="#3351c5"/><path d="M69.926 404.959a20075.903 20075.903 0 0099.882-99.985c4.04-4.072 4.068-10.658.027-14.729-15.484-15.599-37.254-24.943-61.206-23.886-41.722 1.84-75.555 35.688-77.379 77.411-1.047 23.969 8.32 45.75 23.946 61.23 4.075 4.036 10.661 4.003 14.73-.041z" fill="#cbc5cb"/><path d="M169.808 304.972a20162.666 20162.666 0 01-99.883 99.987c-4.068 4.048-10.659 4.079-14.727.041a81.542 81.542 0 01-10.347-12.527 19319.442 19319.442 0 0087.346-87.501c4.037-4.068 4.068-10.659.021-14.727-10.461-10.534-23.777-18.214-38.712-21.764a79.879 79.879 0 0115.121-2.128c23.954-1.048 45.728 8.292 61.202 23.891 4.047 4.07 4.016 10.66-.021 14.728z" fill="#b5adb6"/><path d="M394.648 458.589c-65.997 57.051-138.647 44.804-138.647 44.804v-.478c26.828-3.57 63.236-14.436 97.817-44.327 64.43-55.712 45.136-145.403 45.136-145.403h40.84c.001.001 19.284 89.692-45.146 145.404z" fill="#e1dde1"/><path d="M352.186 307.727l10.52 35.888c2.782 9.489-2.656 19.437-12.145 22.218-9.489 2.782-19.437-2.656-22.218-12.145l-13.473-45.962h37.316z" fill="#3351c5"/><path d="M442.078 404.959a20075.903 20075.903 0 01-99.882-99.985c-4.04-4.072-4.068-10.658-.027-14.729 15.484-15.599 37.254-24.943 61.206-23.886 41.722 1.84 75.555 35.688 77.379 77.411 1.047 23.969-8.32 45.75-23.946 61.23-4.076 4.036-10.662 4.003-14.73-.041z" fill="#cbc5cb"/><path d="M456.805 405.001c-4.068 4.037-10.659 4.006-14.727-.041-4.079-4.058-8.147-8.106-12.226-12.174 9.393-13.876 14.603-30.814 13.803-49.018-1.609-36.636-27.887-67.201-62.52-75.348 7.099-1.671 14.551-2.397 22.241-2.065 41.722 1.847 75.556 35.692 77.382 77.413 1.038 23.974-8.323 45.748-23.953 61.233z" fill="#b5adb6"/><path d="M256.923 329.636h-1.84c-15.737 0-28.495-12.758-28.495-28.495v-35.79h58.83v35.79c.001 15.738-12.757 28.495-28.495 28.495z" fill="#f89f8e"/><path d="M285.423 265.35v35.44c-9.47 2.66-19.35 4.04-29.42 4.04s-19.95-1.38-29.42-4.05v-35.43z" fill="#ea806f"/><path d="M344.335 147.987v48.509c0 1.245-.021 2.48-.083 3.705-1.931 47.056-40.705 84.626-88.248 84.626-47.534 0-86.308-37.57-88.248-84.626a73.338 73.338 0 01-.083-3.705v-48.509z" fill="#fdb0a0"/><path d="M344.335 147.987v48.509c0 1.245-.021 2.48-.083 3.705a87.765 87.765 0 01-5.916 28.344l-72.816 23.372c-3.082.986-6.279 1.484-9.517 1.484s-6.435-.498-9.517-1.484l-72.805-23.362a87.569 87.569 0 01-5.926-28.354 73.338 73.338 0 01-.083-3.705v-48.509z" fill="#f89f8e"/><path d="M333.725 29.005c0-11.877-9.628-21.505-21.505-21.505h-31.836c-11.877 0-21.505 9.628-21.505 21.505v43.227h67.039V91.69c0 11.877 9.628 21.505 21.505 21.505h31.836c11.877 0 21.505-9.628 21.505-21.505V58.928c0-5.78-4.686-10.465-10.465-10.465h-37.115c-10.747 0-19.459-8.712-19.459-19.458z" fill="#5169cd"/><path d="M400.763 58.926V91.69c0 11.873-9.631 21.504-21.504 21.504h-27.711c11.883 0 21.515-9.631 21.515-21.504V58.926c0-5.781-4.691-10.462-10.472-10.462h27.711c5.78 0 10.461 4.681 10.461 10.462zm-47.575-10.462h-27.711c-10.752 0-19.46-8.718-19.46-19.46 0-11.873-9.631-21.504-21.504-21.504h27.711c11.873 0 21.504 9.631 21.504 21.504 0 10.742 8.708 19.46 19.46 19.46z" fill="#3351c5"/><path d="M358.617 171.219H153.39v-29.55c0-56.672 45.941-102.613 102.613-102.613s102.613 45.941 102.613 102.613v29.55z" fill="#f2eff2"/><path d="M358.614 141.673v29.548h-32.288v-29.548c0-28.333-11.489-53.989-30.056-72.567-14.966-14.966-34.54-25.334-56.407-28.79a103.488 103.488 0 0116.139-1.266c28.344 0 53.989 11.489 72.556 30.056 18.578 18.578 30.056 44.234 30.056 72.567z" fill="#e1dde1"/><path d="M249.077 124.773c-25.983 23.507-69.988 30.158-89.162 31.983a10.377 10.377 0 00-9.399 10.332v24.661c0 4.51 2.913 8.504 7.207 9.882l95.109 30.521c2.062.662 4.28.662 6.343 0l95.109-30.521a10.379 10.379 0 007.207-9.882v-24.661c0-5.355-4.068-9.824-9.399-10.332-19.174-1.826-63.179-8.476-89.162-31.983a10.33 10.33 0 00-13.853 0z" fill="#cbc5cb"/><path d="M361.491 167.084v24.67c0 4.504-2.916 8.5-7.203 9.88l-45.344 14.551c18.36-20.145 20.684-45.883 19.73-62.821a245.96 245.96 0 0023.414 3.394c5.334.508 9.403 4.97 9.403 10.326z" fill="#b5adb6"/><path d="M488.246 343.442c-1.985-45.422-39.12-82.572-84.541-84.576-24.939-1.093-49.306 8.412-66.859 26.096-4.12 4.15-5.76 9.853-4.965 15.265h-38.964V284.92c30.239-12.63 52.833-40.328 57.844-74.281l5.813-1.865a17.824 17.824 0 0012.416-17.023V167.09a17.84 17.84 0 00-2.951-9.854c.045-.333.077-.67.077-1.015v-14.55c0-7.112-.679-14.124-1.997-20.975h15.14c15.993 0 29.005-13.011 29.005-29.004V58.928c0-9.906-8.059-17.965-17.965-17.965h-37.116c-6.594 0-11.958-5.365-11.958-11.958C341.226 13.011 328.214 0 312.221 0h-31.836c-15.993 0-29.005 13.012-29.005 29.005v2.655c-58.58 2.433-105.49 50.842-105.49 110.009v14.55c0 .345.031.682.077 1.015a17.848 17.848 0 00-2.951 9.854v24.661c0 7.799 4.989 14.64 12.416 17.023l5.812 1.865c5.011 33.953 27.604 61.652 57.844 74.281v15.307h-38.967c.796-5.411-.845-11.114-4.965-15.265-17.554-17.684-41.924-27.197-66.859-26.095-45.421 2.003-82.556 39.153-84.541 84.575-1.091 24.956 8.444 49.335 26.161 66.885 3.477 3.445 8.042 5.166 12.611 5.166 4.246 0 8.485-1.507 11.866-4.479 8.525 20.87 21.293 38.754 38.053 53.244 35.44 30.639 72.765 41.677 97.835 45.541 10.98 1.692 20.596 2.205 28.223 2.205 8.838 0 14.986-.688 17.495-1.029 2.509.341 8.656 1.029 17.496 1.029 7.626 0 17.244-.513 28.223-2.205 25.071-3.864 62.396-14.901 97.836-45.541 16.76-14.49 29.528-32.374 38.053-53.244a17.939 17.939 0 0011.866 4.479c4.568 0 9.134-1.721 12.611-5.165 17.717-17.549 27.252-41.928 26.161-66.884zm-146.44-28.215l6.758 6.807 6.945 23.692c.782 2.667.479 5.479-.854 7.917s-3.536 4.212-6.203 4.994a10.343 10.343 0 01-7.917-.854 10.34 10.34 0 01-4.994-6.203l-10.656-36.352h16.921zm-85.805 44.331c-27.409-12.02-43.437-26.845-52.127-37.328a45.16 45.16 0 00-2.4-2.65l1.276-4.354h19.211c5.493 12.867 18.271 21.91 33.122 21.91h1.84c14.852 0 27.629-9.042 33.122-21.91h19.207l1.276 4.353a45.416 45.416 0 00-2.4 2.65c-8.69 10.484-24.718 25.309-52.127 37.329zm.002-313.002c19.203 0 37.708 5.697 53.513 16.475a7.5 7.5 0 008.451-12.393c-15.439-10.528-33.1-16.851-51.587-18.58v-3.053c0-7.722 6.283-14.005 14.005-14.005h31.836c7.722 0 14.005 6.282 14.005 14.004 0 14.865 12.093 26.958 26.958 26.958H390.3a2.968 2.968 0 012.965 2.965v32.761c0 7.722-6.283 14.004-14.005 14.004h-19.164a109.696 109.696 0 00-14.897-28.594 7.5 7.5 0 00-12.144 8.806c11.816 16.295 18.062 35.578 18.062 55.764v7.454c-18.299-1.886-59.386-8.407-83.155-29.912a17.772 17.772 0 00-23.917 0c-23.769 21.504-64.856 28.026-83.155 29.911v-7.454c0-52.444 42.668-95.111 95.113-95.111zM177.53 215.864l73.011 23.43c1.787.573 3.625.86 5.462.86s3.676-.287 5.463-.86l31.977-10.262a7.5 7.5 0 10-4.584-14.282l-31.976 10.262a2.867 2.867 0 01-1.76 0l-95.108-30.521a2.87 2.87 0 01-2-2.741v-24.661a2.868 2.868 0 012.61-2.865c23.385-2.227 66.625-9.59 93.482-33.888a2.817 2.817 0 013.791 0c26.857 24.298 70.098 31.662 93.483 33.888a2.87 2.87 0 012.609 2.865v24.661a2.87 2.87 0 01-1.999 2.741l-29.418 9.44a7.5 7.5 0 004.583 14.283l7.32-2.349c-8.727 35.642-40.873 61.456-78.473 61.456-37.599-.001-69.746-25.815-78.473-61.457zm78.473 76.456c7.523 0 14.861-.875 21.915-2.528v11.349c0 11.577-9.418 20.995-20.995 20.995h-1.84c-11.577 0-20.995-9.418-20.995-20.995v-11.349a96.022 96.022 0 0021.915 2.528zm-99.509 53.405l6.945-23.693 6.76-6.806h16.919l-10.656 36.352a10.336 10.336 0 01-4.994 6.203 10.336 10.336 0 01-7.918.854 10.339 10.339 0 01-6.203-4.994 10.335 10.335 0 01-.853-7.916zM122.258 452.91c-16.487-14.253-28.654-32.23-36.21-53.435l12.293-12.266a7.5 7.5 0 00-10.591-10.621s-18.146 18.118-23.111 23.053c-1.154 1.147-3.022 1.162-4.164.031-14.717-14.58-22.638-34.835-21.732-55.574 1.649-37.726 32.492-68.582 70.217-70.245 20.72-.915 40.97 6.986 55.552 21.677 1.131 1.14 1.119 3.007-.028 4.163a20609.393 20609.393 0 01-51.683 51.906 7.5 7.5 0 0010.611 10.603 21839.09 21839.09 0 0018.075-18.112c-1.055 5.718-.127 11.577 2.7 16.749 3.255 5.954 8.634 10.285 15.145 12.193a25.322 25.322 0 007.135 1.028c10.989 0 21.146-7.195 24.39-18.261l5.64-19.239c10.159 10.978 26.628 24.701 52.005 36.076v124.01c-18.448 1.299-74.591.92-126.244-43.736zm267.488 0c-32.537 28.129-66.744 38.35-89.711 41.969-16.204 2.553-29.273 2.284-36.533 1.767V372.642c25.383-11.376 41.844-25.104 52.004-36.084l5.64 19.24c3.244 11.066 13.4 18.262 24.39 18.261 2.359 0 4.759-.332 7.135-1.028 6.512-1.909 11.891-6.239 15.146-12.193 2.827-5.171 3.755-11.03 2.7-16.746a20075.636 20075.636 0 0055.432 55.403c-7.557 21.195-19.722 39.166-36.203 53.415zm61.783-53.239c-1.141 1.13-3.01 1.116-4.165-.031a20153.616 20153.616 0 01-99.845-99.947c-1.146-1.156-1.159-3.023-.028-4.163 13.999-14.102 32.409-21.752 52.159-21.752 1.126 0 2.259.025 3.394.075 37.725 1.664 68.567 32.52 70.216 70.246.907 20.736-7.014 40.993-21.731 55.572z"/><path d="M188.885 168.91a7.5 7.5 0 00-7.5 7.5v10.206a7.5 7.5 0 0015 0V176.41a7.5 7.5 0 00-7.5-7.5zm26.847-5.189a7.5 7.5 0 00-7.5 7.5v20.584a7.5 7.5 0 0015 0v-20.584a7.5 7.5 0 00-7.5-7.5zm26.848-5.189a7.5 7.5 0 00-7.5 7.5v30.963a7.5 7.5 0 0015 0v-30.963a7.5 7.5 0 00-7.5-7.5zm26.847 0a7.5 7.5 0 00-7.5 7.5v30.963a7.5 7.5 0 0015 0v-30.963a7.5 7.5 0 00-7.5-7.5zm34.347 33.273v-20.584a7.5 7.5 0 00-15 0v20.584a7.5 7.5 0 0015 0zm19.348 2.311a7.5 7.5 0 007.5-7.5V176.41a7.5 7.5 0 00-15 0v10.206a7.5 7.5 0 007.5 7.5zM212.694 434.134a7.5 7.5 0 00-7.5 7.5v7.058a7.5 7.5 0 0015 0v-7.058a7.5 7.5 0 00-7.5-7.5zm-35.856-25.155a7.5 7.5 0 00-7.5 7.5v7.058a7.5 7.5 0 0015 0v-7.058a7.5 7.5 0 00-7.5-7.5zm132.106-38.272a7.5 7.5 0 00-7.5 7.5v7.058a7.5 7.5 0 0015 0v-7.058a7.5 7.5 0 00-7.5-7.5zm49.673 41.8a7.5 7.5 0 00-7.5 7.5v7.058a7.5 7.5 0 0015 0v-7.058a7.5 7.5 0 00-7.5-7.5z"/></svg>