<svg height="512" width="512" xmlns="http://www.w3.org/2000/svg"><path d="M178 395h156v109.5H178z" fill="#7ca1b1"/><path d="M304 395h30v109.5h-30z" fill="#678d98"/><path d="M256 475.75c-14.359 0-26-11.641-26-26s11.641-26 26-26 26 11.641 26 26-11.641 26-26 26z" fill="#dcf5f8"/><path d="M121.802 65.657l4.878 9.973c2.557 5.228 7.5 8.851 13.217 9.689l10.907 1.599c12.625 1.851 17.666 17.505 8.53 26.49l-7.893 7.763a17.81 17.81 0 00-5.048 15.677l1.863 10.961c2.157 12.687-11.041 22.362-22.333 16.372l-9.756-5.175a17.414 17.414 0 00-16.337 0l-9.756 5.175c-11.292 5.99-24.489-3.685-22.333-16.372l1.863-10.961a17.81 17.81 0 00-5.048-15.677l-7.893-7.763c-9.135-8.985-4.094-24.639 8.53-26.49L76.1 85.319c5.717-.838 10.66-4.462 13.217-9.689l4.878-9.973c5.649-11.543 21.961-11.543 27.607 0z" fill="#ffd15b"/><path d="M150.805 86.918l-10.907-1.599c-5.718-.838-10.66-4.462-13.217-9.689l-4.878-9.973c-5.646-11.543-21.959-11.543-27.605 0l-3.404 6.959c.363.555.704 1.137 1.008 1.76l4.878 9.973c2.557 5.228 7.5 8.851 13.217 9.689l10.907 1.599c12.625 1.851 17.666 17.505 8.53 26.49l-7.893 7.763a17.81 17.81 0 00-5.048 15.677l1.863 10.961a16.1 16.1 0 01.198 3.691l7.469 3.962c11.292 5.99 24.489-3.685 22.333-16.372l-1.863-10.961a17.81 17.81 0 015.048-15.677l7.893-7.763c9.136-8.984 4.095-24.639-8.529-26.49z" fill="#ffc344"/><path d="M417.802 156.657l4.878 9.973c2.557 5.228 7.5 8.851 13.217 9.689l10.907 1.599c12.625 1.851 17.666 17.505 8.53 26.49l-7.893 7.763a17.81 17.81 0 00-5.048 15.677l1.863 10.961c2.157 12.687-11.041 22.362-22.333 16.372l-9.756-5.175a17.414 17.414 0 00-16.337 0l-9.756 5.175c-11.292 5.99-24.489-3.685-22.333-16.372l1.863-10.961a17.81 17.81 0 00-5.048-15.677l-7.893-7.763c-9.135-8.985-4.094-24.639 8.53-26.49l10.907-1.599c5.717-.838 10.66-4.462 13.217-9.689l4.878-9.973c5.649-11.543 21.961-11.543 27.607 0z" fill="#ffd15b"/><path d="M446.805 177.918l-10.907-1.599c-5.718-.838-10.66-4.462-13.217-9.689l-4.878-9.973c-5.646-11.543-21.959-11.543-27.605 0l-3.404 6.959c.363.555.704 1.137 1.008 1.76l4.878 9.973c2.557 5.228 7.5 8.851 13.217 9.689l10.907 1.599c12.625 1.851 17.666 17.505 8.53 26.49l-7.893 7.763a17.81 17.81 0 00-5.048 15.677l1.863 10.961a16.1 16.1 0 01.198 3.691l7.469 3.962c11.292 5.99 24.489-3.685 22.333-16.372l-1.863-10.961a17.81 17.81 0 015.048-15.677l7.893-7.763c9.136-8.984 4.095-24.639-8.529-26.49z" fill="#ffc344"/><path d="M365.911 395H146.089c-5.254 0-8.678-5.485-6.342-10.16l109.911-219.934c2.602-5.208 10.081-5.208 12.683 0L372.253 384.84c2.336 4.675-1.088 10.16-6.342 10.16z" fill="#ffd15b"/><path d="M372.252 384.84L262.341 164.906c-2.602-5.208-10.081-5.208-12.683 0L241 182.232 342.252 384.84c2.336 4.675-1.087 10.16-6.341 10.16h30c5.254 0 8.678-5.485 6.341-10.16z" fill="#ffc344"/><path d="M172.766 318.77h166.468l-32.256-64.546H205.022z" fill="#fe73c5"/><path d="M306.978 254.224h-30l32.256 64.546h30z" fill="#fe4fb7"/><path d="M256 42.237l90.311 27.752c2.724.837 2.724 4.692 0 5.529L256 103.272z" fill="#6bd9e7"/><circle cx="256" cy="20.5" fill="#ffd15b" r="13"/><path d="M146.439 169.142c7.17-5.181 10.7-13.836 9.212-22.589l-1.863-10.962a10.3 10.3 0 012.914-9.073l7.893-7.763c6.29-6.187 8.491-15.252 5.744-23.661-2.729-8.353-9.796-14.329-18.445-15.597a7.499 7.499 0 00-8.508 6.333 7.5 7.5 0 006.332 8.509c6.415.75 9.085 9.374 4.359 13.722l-7.892 7.763a25.311 25.311 0 00-7.184 22.281l1.863 10.961c.531 3.122-.669 6.082-3.209 7.917-1.183.854-4.351 2.621-8.215.572l-9.756-5.175a24.899 24.899 0 00-23.366 0l-9.756 5.175c-3.862 2.049-7.031.282-8.215-.572-2.54-1.836-3.74-4.796-3.209-7.917l1.863-10.961c1.387-8.164-1.298-16.493-7.183-22.281l-7.893-7.763c-2.236-2.199-2.985-5.305-2.004-8.308.962-2.947 3.341-4.971 6.363-5.414l10.907-1.6c8.168-1.197 15.221-6.362 18.867-13.814l4.878-9.973c2.666-5.89 11.465-5.889 14.13 0l1.821 3.724a7.5 7.5 0 0013.475-6.591l-1.821-3.724c-8.153-17.065-32.93-17.059-41.079 0l-4.878 9.973c-1.47 3.005-4.299 5.085-7.568 5.564l-10.907 1.6c-8.649 1.268-15.717 7.244-18.445 15.597-2.747 8.408-.546 17.474 5.744 23.661l7.893 7.763a10.305 10.305 0 012.913 9.073l-1.863 10.961c-1.487 8.752 2.042 17.408 9.212 22.589 7.094 5.127 16.302 5.764 24.029 1.665l9.756-5.175a9.92 9.92 0 019.308 0l9.756 5.175a22.795 22.795 0 0010.696 2.681c4.685 0 9.343-1.464 13.331-4.346zm319.898 16.953c-2.729-8.353-9.796-14.329-18.445-15.597l-10.907-1.599c-3.269-.479-6.098-2.559-7.568-5.564l-4.878-9.973c-8.153-17.065-32.93-17.059-41.079 0l-4.878 9.973c-1.47 3.005-4.299 5.085-7.568 5.564l-10.907 1.6c-8.649 1.268-15.717 7.244-18.445 15.597-2.747 8.408-.546 17.474 5.744 23.661l7.893 7.763a10.305 10.305 0 012.913 9.073l-1.863 10.961c-1.487 8.753 2.042 17.409 9.213 22.59 7.094 5.126 16.301 5.764 24.029 1.665l9.756-5.175a9.92 9.92 0 019.308 0l9.756 5.175a22.795 22.795 0 0010.696 2.681c4.687 0 9.344-1.463 13.333-4.346 7.17-5.181 10.7-13.836 9.212-22.589l-1.863-10.962a10.3 10.3 0 012.914-9.073l7.893-7.763c6.287-6.188 8.488-15.254 5.741-23.662zm-16.262 12.966l-7.892 7.763a25.311 25.311 0 00-7.184 22.281l1.863 10.961c.531 3.122-.669 6.082-3.209 7.917-1.183.855-4.351 2.621-8.215.572l-9.756-5.175a24.902 24.902 0 00-23.366 0l-9.756 5.175c-3.863 2.049-7.032.282-8.214-.572-2.541-1.836-3.741-4.796-3.21-7.918l1.864-10.96c1.387-8.164-1.298-16.493-7.183-22.281l-7.893-7.763c-2.236-2.199-2.985-5.305-2.004-8.308.962-2.947 3.341-4.971 6.363-5.414l10.907-1.6c8.168-1.197 15.221-6.362 18.867-13.814l4.878-9.973c2.666-5.89 11.465-5.889 14.13 0l4.878 9.973c3.645 7.453 10.699 12.617 18.867 13.815l10.907 1.599c3.021.443 5.4 2.467 6.363 5.414.98 3.003.231 6.109-2.005 8.308z"/><path d="M368.717 360.989a7.5 7.5 0 00-10.061-3.356 7.5 7.5 0 00-3.356 10.062l9.897 19.806H146.803l30.599-61.23h157.195l5.098 10.201c4.747 8.73 17.549 2.323 13.418-6.705L269.05 161.553a14.517 14.517 0 00-5.55-5.993v-46.747l85.014-26.125c9.73-2.98 9.725-16.89 0-19.867l-81.516-25.05C284.078 26.807 276.559.187 256 0c-22.704.396-28.256 31.094-7.5 39.559v116a14.504 14.504 0 00-5.55 5.993L133.039 381.487a14.405 14.405 0 00.638 14.103c2.674 4.327 7.314 6.91 12.413 6.91h24.41v41.961c.344 9.931 14.659 9.923 15 0V402.5h141V497h-141v-17.308c-.344-9.931-14.659-9.923-15 0V504.5a7.5 7.5 0 007.5 7.5h156a7.5 7.5 0 007.5-7.5v-102h24.411c5.098 0 9.738-2.583 12.413-6.91a14.408 14.408 0 00.638-14.103zm-183.818-49.72l24.76-49.546h92.682l24.76 49.546zM263.5 93.121V52.388l66.275 20.366zM256 15c7.269.231 7.267 10.77 0 11-7.269-.231-7.267-10.77 0-11zm0 153.994l38.845 77.729h-77.69z"/><path d="M289.5 449.75c0-18.472-15.028-33.5-33.5-33.5-44.442 1.84-44.429 65.167 0 67 18.472 0 33.5-15.028 33.5-33.5zm-52 0c0-10.201 8.299-18.5 18.5-18.5 24.543 1.017 24.535 35.987 0 37-10.201 0-18.5-8.299-18.5-18.5z"/></svg>