<svg xmlns="http://www.w3.org/2000/svg" viewBox="0 0 512.001 512.001"><path d="M434.877 287.956c-16.653-30.803-40.764-58.708-68.056-80.641H145.18c-27.293 21.932-51.403 49.837-68.056 80.641-13.638 25.227-22.361 53.515-20.642 82.435 5.532 93.027 94.972 135.474 178.354 134.085h42.33c83.383 1.39 172.823-41.058 178.354-134.085 1.718-28.92-7.005-57.208-20.643-82.435z" fill="#00ad95"/><path d="M455.516 370.387c-5.532 93.028-94.965 135.484-178.348 134.086h-27.109c81.056-1.308 165.148-43.973 170.51-134.086 1.717-28.916-6.999-57.203-20.639-82.434-16.655-30.803-40.768-58.7-68.056-80.637h34.947c27.288 21.937 51.402 49.834 68.056 80.637 13.64 25.231 22.356 53.518 20.639 82.434z" fill="#039377"/><path d="M355.797 35.181a61.72 61.72 0 01-42.616-6.601c-23.664-13.255-47.973-26.908-75.051-18.556-8.367 2.581-16.763 8.28-24.624 12.161l-16.423 8.108a61.76 61.76 0 01-39.798 5.111l-39.189-8.072c-12.137-2.5-22.046 9.728-17.085 21.084l44.238 101.257h221.502l44.238-101.256c4.961-11.356-4.948-23.584-17.085-21.084l-38.107 7.848z" fill="#00ad95"/><path d="M410.994 48.418l-44.243 101.256h-34.447l44.243-101.256c2.706-6.211.969-12.681-3.145-16.864L393.9 27.33c12.141-2.496 22.046 9.735 17.094 21.088z" fill="#039377"/><path fill="#ffdba9" d="M145.18 149.67h221.64v57.643H145.18z"/><path fill="#ffc473" d="M332.29 149.67h34.528v57.643H332.29z"/><path d="M184.352 207.315s-1.014 56.337-24.62 96.396c-2.597 4.407 2.359 9.389 6.794 6.84l31.192-17.935a4.993 4.993 0 016.127.909l28.959 30.821c2.469 2.628 6.819 1.857 8.231-1.461 7.65-17.972 26.703-67.981 24.46-115.569h-81.143v-.001z" fill="#ffdba9"/><path d="M241.033 322.889c-1.408 3.315-5.761 4.084-8.227 1.458l-8.807-9.376c8.727-22.186 23.195-65.86 21.218-107.656h20.279c2.246 47.588-16.815 97.602-24.463 115.574z" fill="#ffc473"/><path d="M441.464 284.394a7.488 7.488 0 10-13.175 7.123c14.597 27 21.243 53.388 19.754 78.429-5.302 89.154-92.252 128.339-170.754 127.042l-.125-.001h-42.329l-.125.001C156.199 498.324 69.258 459.1 63.957 369.947c-1.489-25.041 5.157-51.429 19.754-78.429 15.369-28.428 37.507-54.904 64.125-76.713h28.618c-1.2 16.341-5.815 55.649-23.174 85.105-2.914 4.944-2.158 11.008 1.879 15.089 4.046 4.089 10.113 4.91 15.099 2.045l29.48-16.951 27.608 29.383a12.43 12.43 0 0011.282 3.742 12.439 12.439 0 009.296-7.399c7.853-18.451 25.328-64.77 25.229-111.014h91.01a271.922 271.922 0 0138.827 39.005 7.489 7.489 0 0011.635-9.431c-11.979-14.778-25.541-28.407-40.317-40.591v-52.71l43.542-99.664a22.689 22.689 0 00-3.174-23.45 22.691 22.691 0 00-22.284-7.966l-38.106 7.848a54.255 54.255 0 01-37.446-5.799l-.111-.062C292.963 8.673 266.025-6.416 235.923 2.868c-6.367 1.964-12.359 5.303-18.153 8.532-2.654 1.479-5.161 2.876-7.579 4.07l-16.422 8.108c-10.779 5.321-23.198 6.916-34.973 4.491l-39.189-8.071a22.689 22.689 0 00-22.283 7.965 22.69 22.69 0 00-3.174 23.451l11.332 25.94a7.485 7.485 0 009.86 3.864 7.488 7.488 0 003.864-9.86l-11.332-25.939c-1.188-2.719-.782-5.72 1.087-8.025 1.868-2.305 4.716-3.324 7.626-2.726l39.189 8.071c15.021 3.094 30.869 1.059 44.624-5.731l16.42-8.108c2.753-1.359 5.542-2.914 8.24-4.417 5.119-2.853 10.412-5.803 15.276-7.303 23.969-7.392 45.878 4.879 69.073 17.872l.111.062a69.228 69.228 0 0047.786 7.401l38.107-7.848c2.908-.599 5.757.421 7.626 2.726 1.869 2.306 2.274 5.306 1.087 8.025l-42.276 96.766H150.149l-12.312-28.18a7.488 7.488 0 00-9.86-3.864 7.488 7.488 0 00-3.864 9.86l13.578 31.079v52.704c-27.814 22.93-50.998 50.726-67.155 80.612-15.943 29.491-23.187 58.574-21.53 86.441 2.693 45.282 24.594 82.717 63.337 108.256 33.296 21.949 76.807 33.64 122.553 32.873h42.208c1.385.023 2.768.034 4.148.034 44.212 0 86.117-11.622 118.405-32.907 38.742-25.539 60.644-62.974 63.337-108.256 1.657-27.868-5.587-56.951-21.53-86.442zm-205.84 32.018l-26.323-28.015a12.442 12.442 0 00-9.084-3.946c-2.128 0-4.276.547-6.233 1.673l-23.523 13.525c15.897-31.649 19.987-69.187 21.029-84.844h66.7c.113 40.774-14.573 82.139-22.566 101.607zm123.708-159.251v42.666H152.669v-42.666h206.663z"/></svg>