<svg xmlns="http://www.w3.org/2000/svg" viewBox="0 0 512 512"><path fill="#a0e892" d="M225.529 401.095L370.624 256 225.529 110.904l65.688-65.688L502 256 291.217 466.783z"/><path fill="#c4ffb6" d="M10 401.095L155.095 256 10 110.904l65.688-65.688L286.471 256 75.688 466.783z"/><path d="M75.688 476.783a9.972 9.972 0 01-7.071-2.929L2.929 408.167a10.003 10.003 0 010-14.142L140.953 256 2.929 117.975a10.003 10.003 0 010-14.142l65.688-65.688c3.905-3.904 10.237-3.904 14.142 0l84.048 84.048c3.905 3.905 3.905 10.237 0 14.143-3.905 3.904-10.237 3.904-14.143 0L75.688 59.359l-51.546 51.545 138.024 138.024c3.905 3.905 3.905 10.237 0 14.143L24.142 401.096l51.546 51.545L272.329 256l-64.665-64.664c-3.905-3.905-3.905-10.237 0-14.143 3.905-3.904 10.237-3.904 14.143 0l71.735 71.735c3.905 3.905 3.905 10.237 0 14.143L82.759 473.854a9.97 9.97 0 01-7.071 2.929z"/><path d="M188.24 167.769c-2.63 0-5.21-1.069-7.07-2.93a10.033 10.033 0 01-2.93-7.07c0-2.64 1.06-5.21 2.93-7.08a10.053 10.053 0 017.07-2.92c2.63 0 5.21 1.061 7.07 2.92a10.1 10.1 0 012.93 7.08c0 2.63-1.07 5.21-2.93 7.07a10.071 10.071 0 01-7.07 2.93zm148.014 188.959l-.092.093c-3.895 3.916-3.878 10.247.038 14.143a9.97 9.97 0 007.052 2.91 9.97 9.97 0 007.09-2.947l.092-.093c3.895-3.916 3.878-10.247-.038-14.143-3.916-3.894-10.247-3.877-14.142.037z"/><path d="M509.071 248.929L298.288 38.145c-3.905-3.904-10.237-3.904-14.143 0l-65.688 65.688a10.003 10.003 0 000 14.142L356.482 256 218.458 394.024a10.003 10.003 0 000 14.142l65.688 65.688c1.953 1.952 4.512 2.929 7.071 2.929s5.119-.977 7.071-2.929l210.783-210.783c3.906-3.905 3.906-10.237 0-14.142zM291.217 452.64l-11.295-11.295 47.4-47.4c3.905-3.905 3.905-10.237 0-14.143-3.905-3.904-10.237-3.904-14.143 0l-47.4 47.4-26.108-26.108L377.695 263.07c3.905-3.905 3.905-10.237 0-14.143L239.671 110.904l51.546-51.545L487.858 256 291.217 452.64z"/></svg>