<svg xmlns="http://www.w3.org/2000/svg" height="2" width="2" viewBox="0 0 512.001 512.001"><path d="M420.287 154.867l-164.022 8.669-164.022-8.669-11.338 225.787c-3.044 60.63 42.631 111.556 100.054 111.556h150.612c57.423 0 103.099-50.926 100.053-111.556l-11.337-225.787z" fill="#ff961d"/><path d="M331.576 492.212h-37.262c57.423 0 103.102-50.93 100.062-111.559l-11.239-223.821 37.148-1.965 11.342 225.785c3.039 60.63-42.628 111.56-100.051 111.56z" fill="#ef8318"/><path d="M294.127 399.251h-75.722c-54.272 0-98.269-43.997-98.269-98.269V173.659h272.259v127.324c-.001 54.272-43.996 98.268-98.268 98.268z" fill="#f3d1bb"/><path d="M392.397 173.662V300.98c0 54.278-44.001 98.267-98.267 98.267h-38.849c54.278 0 98.267-43.989 98.267-98.267V173.662h38.849z" fill="#e8c0a8"/><g fill="#d99a9e"><circle cx="176.766" cy="327.599" r="14.641"/><circle cx="335.764" cy="327.599" r="14.641"/></g><path d="M120.136 239.378h-2.173c-20.251 0-36.668 16.416-36.668 36.667s16.416 36.667 36.668 36.667h2.173v-73.334z" fill="#f3d1bb"/><path d="M421.489 300.942c-6.699 7.239-16.281 11.772-26.921 11.772h-2.173v-73.336h2.173c20.251 0 36.667 16.416 36.667 36.667 0 9.612-3.697 18.358-9.746 24.897z" fill="#e8c0a8"/><path d="M91.365 165.416s97.87 82.773 176.073 82.836c3.361.003 5.75-3.277 4.753-6.486l-5.472-17.612s83.896 53.76 154.446 45.795V165.416c0-69.829-56.608-126.436-126.437-126.436h-76.927c-69.828 0-126.436 56.607-126.436 126.436z" fill="#ff961d"/><path d="M421.166 165.412v104.537c-13.265 1.5-27.011.811-40.571-1.291V165.412c0-34.915-14.151-66.523-37.03-89.402s-54.5-37.03-89.402-37.03h40.571c34.902 0 66.523 14.151 89.402 37.03s37.03 54.487 37.03 89.402z" fill="#ef8318"/><path d="M347.498 504.505V474.39c0-17.257-9.403-33.771-24.945-43.866-7.853-5.101-17.052-8.442-26.642-9.657-12.435-1.576-12.601-1.236-12.601-12.962v-7.737h-54.092v7.737c0 11.725-.166 11.386-12.601 12.962-9.59 1.215-18.788 4.557-26.642 9.657-15.542 10.095-24.945 26.609-24.945 43.866v30.115h182.468z" fill="#f3d1bb"/><path d="M306.11 423.005a67.569 67.569 0 00-10.197-2.145 275.184 275.184 0 01-3.995-.509l-15.829 20.633c-10.001 13.036-29.644 13.036-39.644 0l-15.829-20.633c-1.157.158-2.488.327-3.995.509a67.273 67.273 0 00-10.197 2.145 62.442 62.442 0 00-9.35 3.574v77.926h118.39v-77.926a62.765 62.765 0 00-9.354-3.574zm86.738-345.764l-47.442 17.101c-1.997.72-4.23.1-5.569-1.546l-60.514-74.34c-11.897-14.616-34.217-14.616-46.113 0l-60.514 74.34a4.995 4.995 0 01-5.569 1.546l-47.442-17.101a5.171 5.171 0 00-6.467 2.74l-19.807 43.986a5.163 5.163 0 002.926 6.974c17.385 6.368 77.013 26.172 155.452 29.966 2.982.144 5.977.144 8.959 0 78.439-3.794 138.067-23.598 155.452-29.966 2.818-1.032 4.158-4.237 2.926-6.974l-19.807-43.986a5.177 5.177 0 00-6.471-2.74z" fill="#00ad95"/><path d="M416.192 130.946c-4.867 1.779-13.032 4.607-23.995 7.845a5.693 5.693 0 00-.31-3.818l-21.966-48.769c-.09-.21-.2-.4-.31-.59l23.235-8.375a5.17 5.17 0 016.466 2.738l19.807 43.992a5.162 5.162 0 01-2.927 6.977z" fill="#039377"/><circle cx="254.167" cy="100.016" r="24.399" fill="#d5f0f7"/><path d="M278.561 100.016c0 13.481-10.923 24.404-24.394 24.404-11.842 0-21.706-8.425-23.925-19.607a24.285 24.285 0 0013.211 3.887c13.481 0 24.404-10.923 24.404-24.404 0-1.639-.16-3.228-.48-4.777 6.727 4.327 11.184 11.892 11.184 20.497z" fill="#a6dfe8"/><path d="M254.163 131.912c17.587 0 31.894-14.308 31.894-31.894s-14.308-31.894-31.894-31.894-31.893 14.308-31.893 31.894 14.307 31.894 31.893 31.894zm0-48.799c9.321 0 16.904 7.583 16.904 16.904s-7.583 16.904-16.904 16.904c-9.32 0-16.903-7.583-16.903-16.904s7.583-16.904 16.903-16.904zm21.769 255.676a7.494 7.494 0 00-7.495 7.495v.901c0 6.712-5.46 12.172-12.172 12.172-6.712 0-12.172-5.46-12.172-12.172v-.901c0-4.14-3.355-7.495-7.495-7.495s-7.495 3.355-7.495 7.495v.901c0 14.977 12.184 27.162 27.162 27.162 14.977 0 27.162-12.184 27.162-27.162v-.901a7.493 7.493 0 00-7.495-7.495zm-56.921-50.599a7.494 7.494 0 00-7.495 7.495v19.865c0 4.14 3.355 7.495 7.495 7.495s7.495-3.355 7.495-7.495v-19.865a7.494 7.494 0 00-7.495-7.495zm74.509 0a7.494 7.494 0 00-7.495 7.495v19.865a7.494 7.494 0 007.495 7.495 7.494 7.494 0 007.495-7.495v-19.865a7.494 7.494 0 00-7.495-7.495z"/><path d="M431.75 394.206c-4.101-.556-7.883 2.306-8.446 6.406-3.179 23.152-14.144 44.43-30.875 59.916-10.855 10.047-23.692 17.162-37.436 20.966v-7.105c0-.144 0-.288-.002-.431-.121-15.667-7.009-30.65-18.147-41.556-11.262-11.028-24.466-16.965-40.035-18.984-1.006-.13-5.39.078-5.935-.804-.067-1.336-.067-3.207-.067-4.708v-1.16h3.32c51.812 0 95.037-37.449 104.039-86.7a44.403 44.403 0 0022.492-8.384l2.23 44.401a7.468 7.468 0 007.861 7.109 7.494 7.494 0 007.109-7.861l-3.064-61.026a44.091 44.091 0 003.937-18.24c0-10.635-3.785-20.398-10.07-28.028v-82.602c0-11.042-1.366-21.766-3.898-32.036.521-.738.968-1.53 1.323-2.373a12.715 12.715 0 00-.127-10.115L406.15 76.902c-2.699-5.991-9.658-8.941-15.843-6.713l-1.106.399c-23.147-23.06-54.654-37.728-89.525-39.001l-14.541-17.862C278.034 5.003 267.512 0 256.264 0c-11.247 0-21.768 5.003-28.868 13.725l-14.541 17.862c-34.874 1.273-66.385 15.938-89.532 38.999l-1.099-.397c-6.186-2.231-13.144.721-15.843 6.715l-19.806 43.985a12.709 12.709 0 00-.129 10.116 12.58 12.58 0 001.321 2.37c-2.533 10.271-8.002 120.55-8.002 120.55a43.853 43.853 0 00-5.965 22.12 43.88 43.88 0 003.939 18.222l-4.319 86.011c-1.612 32.113 9.859 63.565 31.472 86.291 14.68 15.434 32.857 25.834 52.645 30.432v7.503a7.494 7.494 0 007.495 7.495h182.467a7.494 7.494 0 007.495-7.495v-7.523c17.542-4.11 33.941-12.794 47.618-25.453 19.27-17.836 31.892-42.297 35.543-68.878a7.495 7.495 0 00-6.405-8.444zm-46.85-93.223c0 50.052-40.721 90.772-90.773 90.772h-75.722c-50.052 0-90.772-40.721-90.772-90.772v-99.542a513.915 513.915 0 0018.567 11.782c46.629 28.189 87.418 42.496 121.236 42.524h.007c3.94 0 7.69-1.896 10.032-5.074a12.555 12.555 0 002.064-10.459 395.95 395.95 0 0035.059 16.741c25.287 10.562 48.799 17.212 70.304 19.916v24.112zM279.264 423.089c.202.223.409.433.621.633l-8.95 11.665c-3.528 4.598-8.874 7.234-14.669 7.234s-11.141-2.637-14.67-7.234l-8.95-11.666c.211-.2.418-.41.62-.633 3.448-3.793 3.448-8.57 3.448-15.183v-.242h39.102v.242c0 6.614 0 11.392 3.448 15.184zm144.454-146.1a29.068 29.068 0 01-7.731 18.862 29.281 29.281 0 01-16.097 8.873V278.12c2.13.085 4.244.143 6.329.143 5.414 0 10.681-.288 15.787-.863a7.51 7.51 0 001.712-.411zM373.396 76.286L344.53 86.691l-31.6-38.819c22.971 3.544 43.793 13.68 60.466 28.414zM199.589 47.885L168 86.691l-28.86-10.403c16.669-14.728 37.486-24.858 60.449-28.403zm-35.914 94.092c-29.388-6.189-50.979-13.147-62.402-17.221l17.892-39.734 45.418 16.372a12.512 12.512 0 0013.923-3.867l60.515-74.34a22.144 22.144 0 0117.244-8.198 22.149 22.149 0 0117.245 8.198l60.515 74.342a12.514 12.514 0 0013.923 3.864l45.418-16.371 17.892 39.733c-19.121 6.808-76.568 25.071-150.875 28.666a85.052 85.052 0 01-8.236 0c-13.147-.637-29.151-2.057-43.91-3.895a7.495 7.495 0 10-1.854 14.876c15.117 1.885 31.534 3.34 45.039 3.993a99.964 99.964 0 009.686 0c70.43-3.407 126.258-19.695 149.955-27.706a118.777 118.777 0 012.606 24.729v97.644c-65.652 3.669-142.119-44.711-142.907-45.216a7.495 7.495 0 00-11.201 8.534l4.45 14.32c-66.907-2.207-149.238-65.994-165.1-78.79a118.472 118.472 0 012.548-21.217c12.631 4.286 32.896 10.43 59.126 15.955a7.496 7.496 0 003.09-14.671zm-65.221 38.654a521.99 521.99 0 0014.187 10.486v41.099a43.868 43.868 0 00-17.068 5.789l2.881-57.374zm14.187 66.729v57.373c-13.553-2.509-23.851-14.419-23.851-28.686 0-14.269 10.299-26.179 23.851-28.687zm76.933 249.65h-17.048v-22.62c0-13.051 6.289-25.528 17.048-34.298v56.918zm-3.679-72.77c-17.758 11.532-28.358 30.279-28.358 50.151v7.161c-15.644-4.308-30.009-12.931-41.783-25.312-18.797-19.764-28.77-47.178-27.363-75.21l3.485-69.389a43.938 43.938 0 0022.492 8.41c9.003 49.249 52.227 86.696 104.037 86.696h3.32v1.16c0 1.502 0 3.373-.067 4.709a63.64 63.64 0 01-2.089.316c-11.777 1.591-23.592 4.759-33.674 11.308zm122.07 72.77h-103.4v-65.473c.114-.043.224-.091.338-.133.271-.1.543-.195.816-.292 1.076-.379 10.776-3.816 11.579-2.769l12.405 16.17c6.387 8.326 16.069 13.1 26.562 13.1 10.492 0 20.175-4.774 26.561-13.1l12.405-16.17c.919-1.199 10.239 2.298 11.576 2.768.275.097.55.192.823.294.113.042.222.089.335.132v65.473zm32.038 0h-17.048v-56.92c10.759 8.77 17.048 21.247 17.048 34.299v22.621z"/><path d="M225.527 279.832a7.499 7.499 0 0010.528-.651 7.496 7.496 0 00-.604-10.583c-6.225-5.554-22.427-12.792-39.184-.44a7.495 7.495 0 108.894 12.066c10.591-7.806 18.799-1.719 20.366-.392zm87.217-11.234c-6.225-5.555-22.422-12.797-39.184-.441a7.495 7.495 0 108.894 12.066c10.59-7.805 18.799-1.719 20.364-.393a7.498 7.498 0 0010.527-.651 7.493 7.493 0 00-.601-10.581z"/></svg>