<svg xmlns="http://www.w3.org/2000/svg" height="512" width="512" viewBox="0 0 512.002 512.002"><path fill="#b76035" d="M343.752 406.255l37.657-30.597 52.447 64.549-37.657 30.596z"/><path fill="#a04c27" d="M364.377 389.503l17.038-13.844 52.447 64.548-17.038 13.844z"/><path d="M314.182 430.303l96.791-78.651a4.999 4.999 0 00.727-7.032l-21.028-25.879a4.999 4.999 0 00-7.032-.727l-96.791 78.651a4.999 4.999 0 00-.727 7.032l21.028 25.879a4.998 4.998 0 007.032.727z" fill="#b76035"/><path d="M400.692 360.007l10.281-8.354a4.999 4.999 0 00.727-7.032l-21.028-25.879a4.999 4.999 0 00-7.032-.727l-10.281 8.354 27.333 33.638z" fill="#a04c27"/><path d="M305.452 381.548L60.545 80.152a5 5 0 01-1.083-2.549L50.943 7.608l284.232 349.789-29.723 24.151z" fill="#b7c1ca"/><path d="M365.036 333.132L120.128 31.736a4.995 4.995 0 00-2.273-1.581L51.083 7.494l284.232 349.789 29.721-24.151z" fill="#6b6c8a"/><path d="M365.037 333.132l-12.117 9.848L109.031 42.834a4.995 4.995 0 00-2.273-1.581L67.761 28.019 51.085 7.493l66.771 22.662a5.01 5.01 0 012.273 1.581l244.908 301.396z" fill="#5d5f7a"/><circle cx="348.914" cy="374.154" r="39.24" fill="#ffdba9"/><path d="M373.655 404.617c-9.998 8.128-22.785 10.518-34.382 7.578a39.045 39.045 0 0015.056-7.578c16.826-13.667 19.376-38.381 5.709-55.208a38.983 38.983 0 00-20.815-13.287c14.357-3.649 30.183 1.03 40.141 13.287 13.666 16.826 11.117 41.54-5.709 55.208z" fill="#ffc473"/><circle cx="427.785" cy="471.235" r="33.27" fill="#b76035"/><path d="M448.769 497.046c-10.948 8.898-25.844 9.688-37.422 3.109a33.256 33.256 0 0015.427-6.988c14.257-11.577 16.426-32.533 4.839-46.789a33.326 33.326 0 00-9.368-7.958c11.427-1.92 23.535 2.199 31.363 11.827 11.587 14.266 9.417 35.212-4.839 46.799z" fill="#a04c27"/><path fill="#b76035" d="M115.822 470.83l-37.656-30.597 52.447-64.548 37.656 30.597z"/><path fill="#a04c27" d="M95.204 454.073l-17.038-13.845 52.447-64.548 17.038 13.844z"/><path d="M197.818 430.303l-96.791-78.651a4.999 4.999 0 01-.727-7.032l21.028-25.879a4.999 4.999 0 017.032-.727l96.791 78.651a4.999 4.999 0 01.727 7.032l-21.028 25.879a4.998 4.998 0 01-7.032.727z" fill="#b76035"/><path d="M111.308 360.007l-10.281-8.354a4.999 4.999 0 01-.727-7.032l21.028-25.879a4.999 4.999 0 017.032-.727l10.281 8.354-27.333 33.638z" fill="#a04c27"/><path d="M206.548 381.548L451.456 80.152a5 5 0 001.083-2.549l8.519-69.996-284.232 349.79 29.722 24.151z" fill="#b7c1ca"/><path d="M146.965 333.132L391.873 31.736a4.995 4.995 0 012.273-1.581l66.772-22.66-284.232 349.788-29.721-24.151z" fill="#6b6c8a"/><path d="M146.964 333.132l12.117 9.848L402.969 42.834a4.995 4.995 0 012.273-1.581l38.996-13.234 16.676-20.525-66.771 22.662a5.01 5.01 0 00-2.273 1.581L146.964 333.132z" fill="#5d5f7a"/><circle cx="163.092" cy="374.154" r="39.24" fill="#ffdba9"/><path d="M138.346 404.617c9.998 8.128 22.785 10.518 34.382 7.578a39.056 39.056 0 01-15.057-7.578c-16.826-13.667-19.376-38.381-5.709-55.208a38.983 38.983 0 0120.815-13.287c-14.357-3.649-30.183 1.03-40.141 13.287-13.665 16.826-11.116 41.54 5.71 55.208z" fill="#ffc473"/><circle cx="84.211" cy="471.235" r="33.27" fill="#b76035"/><path d="M63.232 497.046c10.948 8.898 25.844 9.688 37.422 3.109a33.256 33.256 0 01-15.427-6.988c-14.257-11.577-16.426-32.533-4.839-46.789a33.326 33.326 0 019.368-7.958c-11.427-1.92-23.535 2.199-31.363 11.827-11.587 14.266-9.417 35.212 4.839 46.799z" fill="#a04c27"/><path d="M436.322 431.369l-41.143-50.633c.083-.588.165-1.175.226-1.769.18-1.74.253-3.473.242-5.198l20.054-16.296a12.421 12.421 0 004.552-8.414 12.415 12.415 0 00-2.733-9.166l-21.027-25.878c-4.345-5.349-12.232-6.166-17.581-1.819l-12.785 10.389-51.002-62.766 37.828-46.553a7.496 7.496 0 00-1.091-10.547 7.495 7.495 0 00-10.547 1.091L209.177 366.423c-1.453-8.729-5.292-16.734-11.113-23.272L450.471 32.526l-5.289 43.456-74.126 91.223a7.496 7.496 0 001.091 10.547 7.497 7.497 0 0010.547-1.091l74.581-91.781a12.47 12.47 0 002.707-6.372l8.519-69.997c.287-2.365-.58-4.648-2.207-6.246l-.013-.013a7.342 7.342 0 00-.586-.511 7.115 7.115 0 00-.594-.449l-.043-.027c-1.895-1.257-4.301-1.635-6.549-.874l-66.773 22.661a12.486 12.486 0 00-5.681 3.953L256.001 187.057l-73.357-90.276a7.498 7.498 0 00-11.638 9.456l75.333 92.709-15.011 18.474L73.308 22.955l41.453 14.068 26.385 32.469a7.498 7.498 0 1011.638-9.456l-26.838-33.029a12.484 12.484 0 00-5.682-3.953L53.493.394c-2.251-.763-4.662-.384-6.559.879l-.027.017a7.264 7.264 0 00-.607.459 7.474 7.474 0 00-.576.502l-.02.021a7.482 7.482 0 00-2.203 6.242l8.519 69.993a12.465 12.465 0 002.707 6.375l142.15 174.938-51.002 62.766-12.786-10.39c-5.349-4.345-13.235-3.529-17.579 1.819l-21.029 25.878a12.423 12.423 0 00-2.733 9.167 12.413 12.413 0 004.551 8.413l20.055 16.297a47.528 47.528 0 00.242 5.198c.061.593.144 1.181.226 1.769L75.679 431.37c-9.08 1.926-17.169 6.848-23.105 14.153-14.175 17.444-11.516 43.169 5.929 57.346 7.337 5.962 16.306 9.133 25.631 9.133a41.45 41.45 0 004.271-.221c10.832-1.12 20.577-6.391 27.444-14.841 5.936-7.305 9.099-16.23 9.127-25.512l41.163-50.659a47.043 47.043 0 006.876-.957l20.074 16.312a12.4 12.4 0 007.858 2.8c.434 0 .871-.022 1.308-.067a12.413 12.413 0 008.413-4.551l21.029-25.878a12.423 12.423 0 002.733-9.167 12.413 12.413 0 00-4.551-8.413l-12.784-10.388 38.904-47.878 38.904 47.878-12.783 10.387a12.421 12.421 0 00-4.552 8.414 12.415 12.415 0 002.733 9.166l21.028 25.878a12.421 12.421 0 008.414 4.552c.438.045.875.067 1.308.067a12.4 12.4 0 007.858-2.8l20.074-16.312c2.266.49 4.565.805 6.876.957l41.163 50.658c.027 9.281 3.191 18.207 9.127 25.511 6.867 8.451 16.612 13.722 27.444 14.842 1.428.147 2.853.221 4.271.221 9.324 0 18.295-3.171 25.632-9.133 17.444-14.176 20.104-39.901 5.928-57.346-5.932-7.305-14.022-12.228-23.102-14.153zM66.819 75.982L61.53 32.526l160.02 196.929-15.012 18.474L66.819 75.982zm330.42-38.959l41.453-14.068L186.285 333.58c-7.59-4.361-16.21-6.482-25.052-6.117l236.006-290.44zM107.695 347.409l17.876-21.999 11.878 9.652a46.831 46.831 0 00-10.635 9.62 46.852 46.852 0 00-7.241 12.379l-11.878-9.652zm-3.484 140.07c0 .001 0 .001 0 0-8.96 11.029-25.224 12.709-36.25 3.75-11.028-8.962-12.709-25.223-3.749-36.25 5.087-6.259 12.524-9.508 20.024-9.508a25.653 25.653 0 0116.227 5.759c5.342 4.341 8.674 10.503 9.382 17.349.707 6.846-1.293 13.559-5.634 18.9zm16.453-34.526a40.644 40.644 0 00-10.744-13.361 40.632 40.632 0 00-15.277-7.782l27.913-34.351a46.696 46.696 0 0011.057 12.975 46.503 46.503 0 0014.976 8.152l-27.925 34.367zm45.691-47.217c-8.438.871-16.704-1.593-23.285-6.94-6.581-5.347-10.685-12.938-11.557-21.371-.872-8.435 1.592-16.704 6.94-23.285 5.347-6.581 12.938-10.685 21.371-11.557a32.321 32.321 0 013.324-.172c7.261 0 14.248 2.47 19.96 7.112 6.581 5.347 10.685 12.938 11.557 21.371.872 8.435-1.592 16.704-6.94 23.285-5.346 6.581-12.936 10.685-21.37 11.557zm52.128-4.827l-17.876 21.999-11.899-9.669a46.496 46.496 0 0010.656-9.603 46.806 46.806 0 007.24-12.379l11.879 9.652zm167.946-75.498l17.876 21.999-11.878 9.652a46.852 46.852 0 00-7.241-12.379 46.831 46.831 0 00-10.635-9.62l11.878-9.652zm-35.662 2.052c-8.836-.364-17.459 1.756-25.051 6.117l-35.264-43.397 15.011-18.474 45.304 55.754zm-85.105-6.773l15.012-18.474 33.263 40.935c-5.822 6.538-9.66 14.543-11.113 23.272l-37.162-45.733zm45.731 102.218l-17.876-21.999 11.878-9.652a46.86 46.86 0 007.24 12.379 46.537 46.537 0 0010.656 9.603l-11.898 9.669zm34.253-17.172c-8.434-.872-16.024-4.976-21.371-11.557-5.348-6.581-7.812-14.85-6.94-23.285.872-8.434 4.976-16.024 11.557-21.371 5.714-4.642 12.698-7.112 19.96-7.112 1.102 0 2.212.057 3.324.172 8.434.872 16.024 4.976 21.371 11.557s7.812 14.85 6.94 23.285c-.872 8.434-4.976 16.024-11.557 21.371-6.581 5.348-14.848 7.813-23.284 6.94zm45.691 47.217l-27.926-34.368a46.494 46.494 0 0014.977-8.151 46.73 46.73 0 0011.057-12.975l27.914 34.351a40.628 40.628 0 00-15.278 7.782 40.641 40.641 0 00-10.744 13.361zm52.704 38.276c-11.03 8.959-27.29 7.279-36.251-3.749v-.001c-4.341-5.342-6.341-12.054-5.633-18.9.708-6.846 4.04-13.008 9.382-17.349a25.643 25.643 0 0116.227-5.759c7.498 0 14.938 3.249 20.024 9.508 8.959 11.028 7.278 27.289-3.749 36.25z"/></svg>